%TF.GenerationSoftware,KiCad,Pcbnew,8.0.1*%
%TF.CreationDate,2024-03-25T00:54:51+02:00*%
%TF.ProjectId,3088,33303838-2e6b-4696-9361-645f70636258,rev?*%
%TF.SameCoordinates,Original*%
%TF.FileFunction,Soldermask,Bot*%
%TF.FilePolarity,Negative*%
%FSLAX46Y46*%
G04 Gerber Fmt 4.6, Leading zero omitted, Abs format (unit mm)*
G04 Created by KiCad (PCBNEW 8.0.1) date 2024-03-25 00:54:51*
%MOMM*%
%LPD*%
G01*
G04 APERTURE LIST*
%ADD10C,1.800000*%
%ADD11R,1.800000X1.800000*%
%ADD12O,1.700000X1.700000*%
%ADD13R,1.700000X1.700000*%
%ADD14R,2.000000X2.000000*%
%ADD15C,2.000000*%
G04 APERTURE END LIST*
D10*
%TO.C,Q3*%
X121000000Y-53735000D03*
D11*
X121000000Y-56275000D03*
%TD*%
D10*
%TO.C,Q4*%
X167000000Y-56265000D03*
D11*
X167000000Y-53725000D03*
%TD*%
D10*
%TO.C,Q2*%
X151265000Y-54500000D03*
D11*
X148725000Y-54500000D03*
%TD*%
D12*
%TO.C,J1*%
X127680000Y-87040000D03*
X127680000Y-84500000D03*
X130220000Y-87040000D03*
X130220000Y-84500000D03*
X132760000Y-87040000D03*
X132760000Y-84500000D03*
X135300000Y-87040000D03*
X135300000Y-84500000D03*
X137840000Y-87040000D03*
X137840000Y-84500000D03*
X140380000Y-87040000D03*
X140380000Y-84500000D03*
X142920000Y-87040000D03*
X142920000Y-84500000D03*
X145460000Y-87040000D03*
X145460000Y-84500000D03*
X148000000Y-87040000D03*
X148000000Y-84500000D03*
X150540000Y-87040000D03*
X150540000Y-84500000D03*
X153080000Y-87040000D03*
X153080000Y-84500000D03*
X155620000Y-87040000D03*
X155620000Y-84500000D03*
X158160000Y-87040000D03*
X158160000Y-84500000D03*
X160700000Y-87040000D03*
D13*
X160700000Y-84500000D03*
%TD*%
D14*
%TO.C,D4*%
X167000000Y-61460000D03*
D15*
X167000000Y-64000000D03*
%TD*%
D14*
%TO.C,D2*%
X121500000Y-60960000D03*
D15*
X121500000Y-63500000D03*
%TD*%
D14*
%TO.C,D1*%
X140730000Y-55000000D03*
D15*
X143270000Y-55000000D03*
%TD*%
M02*
