%TF.GenerationSoftware,KiCad,Pcbnew,8.0.1*%
%TF.CreationDate,2024-03-25T00:54:51+02:00*%
%TF.ProjectId,3088,33303838-2e6b-4696-9361-645f70636258,rev?*%
%TF.SameCoordinates,Original*%
%TF.FileFunction,Legend,Top*%
%TF.FilePolarity,Positive*%
%FSLAX46Y46*%
G04 Gerber Fmt 4.6, Leading zero omitted, Abs format (unit mm)*
G04 Created by KiCad (PCBNEW 8.0.1) date 2024-03-25 00:54:51*
%MOMM*%
%LPD*%
G01*
G04 APERTURE LIST*
%ADD10C,0.150000*%
%ADD11C,0.120000*%
%ADD12C,0.100000*%
G04 APERTURE END LIST*
D10*
X117590057Y-55100238D02*
X117542438Y-55195476D01*
X117542438Y-55195476D02*
X117447200Y-55290714D01*
X117447200Y-55290714D02*
X117304342Y-55433571D01*
X117304342Y-55433571D02*
X117256723Y-55528809D01*
X117256723Y-55528809D02*
X117256723Y-55624047D01*
X117494819Y-55576428D02*
X117447200Y-55671666D01*
X117447200Y-55671666D02*
X117351961Y-55766904D01*
X117351961Y-55766904D02*
X117161485Y-55814523D01*
X117161485Y-55814523D02*
X116828152Y-55814523D01*
X116828152Y-55814523D02*
X116637676Y-55766904D01*
X116637676Y-55766904D02*
X116542438Y-55671666D01*
X116542438Y-55671666D02*
X116494819Y-55576428D01*
X116494819Y-55576428D02*
X116494819Y-55385952D01*
X116494819Y-55385952D02*
X116542438Y-55290714D01*
X116542438Y-55290714D02*
X116637676Y-55195476D01*
X116637676Y-55195476D02*
X116828152Y-55147857D01*
X116828152Y-55147857D02*
X117161485Y-55147857D01*
X117161485Y-55147857D02*
X117351961Y-55195476D01*
X117351961Y-55195476D02*
X117447200Y-55290714D01*
X117447200Y-55290714D02*
X117494819Y-55385952D01*
X117494819Y-55385952D02*
X117494819Y-55576428D01*
X116494819Y-54814523D02*
X116494819Y-54195476D01*
X116494819Y-54195476D02*
X116875771Y-54528809D01*
X116875771Y-54528809D02*
X116875771Y-54385952D01*
X116875771Y-54385952D02*
X116923390Y-54290714D01*
X116923390Y-54290714D02*
X116971009Y-54243095D01*
X116971009Y-54243095D02*
X117066247Y-54195476D01*
X117066247Y-54195476D02*
X117304342Y-54195476D01*
X117304342Y-54195476D02*
X117399580Y-54243095D01*
X117399580Y-54243095D02*
X117447200Y-54290714D01*
X117447200Y-54290714D02*
X117494819Y-54385952D01*
X117494819Y-54385952D02*
X117494819Y-54671666D01*
X117494819Y-54671666D02*
X117447200Y-54766904D01*
X117447200Y-54766904D02*
X117399580Y-54814523D01*
X156444642Y-72754819D02*
X156111309Y-72278628D01*
X155873214Y-72754819D02*
X155873214Y-71754819D01*
X155873214Y-71754819D02*
X156254166Y-71754819D01*
X156254166Y-71754819D02*
X156349404Y-71802438D01*
X156349404Y-71802438D02*
X156397023Y-71850057D01*
X156397023Y-71850057D02*
X156444642Y-71945295D01*
X156444642Y-71945295D02*
X156444642Y-72088152D01*
X156444642Y-72088152D02*
X156397023Y-72183390D01*
X156397023Y-72183390D02*
X156349404Y-72231009D01*
X156349404Y-72231009D02*
X156254166Y-72278628D01*
X156254166Y-72278628D02*
X155873214Y-72278628D01*
X157397023Y-72754819D02*
X156825595Y-72754819D01*
X157111309Y-72754819D02*
X157111309Y-71754819D01*
X157111309Y-71754819D02*
X157016071Y-71897676D01*
X157016071Y-71897676D02*
X156920833Y-71992914D01*
X156920833Y-71992914D02*
X156825595Y-72040533D01*
X158254166Y-72088152D02*
X158254166Y-72754819D01*
X158016071Y-71707200D02*
X157777976Y-72421485D01*
X157777976Y-72421485D02*
X158397023Y-72421485D01*
X169357142Y-70954819D02*
X169023809Y-70478628D01*
X168785714Y-70954819D02*
X168785714Y-69954819D01*
X168785714Y-69954819D02*
X169166666Y-69954819D01*
X169166666Y-69954819D02*
X169261904Y-70002438D01*
X169261904Y-70002438D02*
X169309523Y-70050057D01*
X169309523Y-70050057D02*
X169357142Y-70145295D01*
X169357142Y-70145295D02*
X169357142Y-70288152D01*
X169357142Y-70288152D02*
X169309523Y-70383390D01*
X169309523Y-70383390D02*
X169261904Y-70431009D01*
X169261904Y-70431009D02*
X169166666Y-70478628D01*
X169166666Y-70478628D02*
X168785714Y-70478628D01*
X170309523Y-70954819D02*
X169738095Y-70954819D01*
X170023809Y-70954819D02*
X170023809Y-69954819D01*
X170023809Y-69954819D02*
X169928571Y-70097676D01*
X169928571Y-70097676D02*
X169833333Y-70192914D01*
X169833333Y-70192914D02*
X169738095Y-70240533D01*
X170642857Y-69954819D02*
X171261904Y-69954819D01*
X171261904Y-69954819D02*
X170928571Y-70335771D01*
X170928571Y-70335771D02*
X171071428Y-70335771D01*
X171071428Y-70335771D02*
X171166666Y-70383390D01*
X171166666Y-70383390D02*
X171214285Y-70431009D01*
X171214285Y-70431009D02*
X171261904Y-70526247D01*
X171261904Y-70526247D02*
X171261904Y-70764342D01*
X171261904Y-70764342D02*
X171214285Y-70859580D01*
X171214285Y-70859580D02*
X171166666Y-70907200D01*
X171166666Y-70907200D02*
X171071428Y-70954819D01*
X171071428Y-70954819D02*
X170785714Y-70954819D01*
X170785714Y-70954819D02*
X170690476Y-70907200D01*
X170690476Y-70907200D02*
X170642857Y-70859580D01*
X152769642Y-63754819D02*
X152436309Y-63278628D01*
X152198214Y-63754819D02*
X152198214Y-62754819D01*
X152198214Y-62754819D02*
X152579166Y-62754819D01*
X152579166Y-62754819D02*
X152674404Y-62802438D01*
X152674404Y-62802438D02*
X152722023Y-62850057D01*
X152722023Y-62850057D02*
X152769642Y-62945295D01*
X152769642Y-62945295D02*
X152769642Y-63088152D01*
X152769642Y-63088152D02*
X152722023Y-63183390D01*
X152722023Y-63183390D02*
X152674404Y-63231009D01*
X152674404Y-63231009D02*
X152579166Y-63278628D01*
X152579166Y-63278628D02*
X152198214Y-63278628D01*
X153722023Y-63754819D02*
X153150595Y-63754819D01*
X153436309Y-63754819D02*
X153436309Y-62754819D01*
X153436309Y-62754819D02*
X153341071Y-62897676D01*
X153341071Y-62897676D02*
X153245833Y-62992914D01*
X153245833Y-62992914D02*
X153150595Y-63040533D01*
X154102976Y-62850057D02*
X154150595Y-62802438D01*
X154150595Y-62802438D02*
X154245833Y-62754819D01*
X154245833Y-62754819D02*
X154483928Y-62754819D01*
X154483928Y-62754819D02*
X154579166Y-62802438D01*
X154579166Y-62802438D02*
X154626785Y-62850057D01*
X154626785Y-62850057D02*
X154674404Y-62945295D01*
X154674404Y-62945295D02*
X154674404Y-63040533D01*
X154674404Y-63040533D02*
X154626785Y-63183390D01*
X154626785Y-63183390D02*
X154055357Y-63754819D01*
X154055357Y-63754819D02*
X154674404Y-63754819D01*
X128333333Y-71654819D02*
X128000000Y-71178628D01*
X127761905Y-71654819D02*
X127761905Y-70654819D01*
X127761905Y-70654819D02*
X128142857Y-70654819D01*
X128142857Y-70654819D02*
X128238095Y-70702438D01*
X128238095Y-70702438D02*
X128285714Y-70750057D01*
X128285714Y-70750057D02*
X128333333Y-70845295D01*
X128333333Y-70845295D02*
X128333333Y-70988152D01*
X128333333Y-70988152D02*
X128285714Y-71083390D01*
X128285714Y-71083390D02*
X128238095Y-71131009D01*
X128238095Y-71131009D02*
X128142857Y-71178628D01*
X128142857Y-71178628D02*
X127761905Y-71178628D01*
X128809524Y-71654819D02*
X129000000Y-71654819D01*
X129000000Y-71654819D02*
X129095238Y-71607200D01*
X129095238Y-71607200D02*
X129142857Y-71559580D01*
X129142857Y-71559580D02*
X129238095Y-71416723D01*
X129238095Y-71416723D02*
X129285714Y-71226247D01*
X129285714Y-71226247D02*
X129285714Y-70845295D01*
X129285714Y-70845295D02*
X129238095Y-70750057D01*
X129238095Y-70750057D02*
X129190476Y-70702438D01*
X129190476Y-70702438D02*
X129095238Y-70654819D01*
X129095238Y-70654819D02*
X128904762Y-70654819D01*
X128904762Y-70654819D02*
X128809524Y-70702438D01*
X128809524Y-70702438D02*
X128761905Y-70750057D01*
X128761905Y-70750057D02*
X128714286Y-70845295D01*
X128714286Y-70845295D02*
X128714286Y-71083390D01*
X128714286Y-71083390D02*
X128761905Y-71178628D01*
X128761905Y-71178628D02*
X128809524Y-71226247D01*
X128809524Y-71226247D02*
X128904762Y-71273866D01*
X128904762Y-71273866D02*
X129095238Y-71273866D01*
X129095238Y-71273866D02*
X129190476Y-71226247D01*
X129190476Y-71226247D02*
X129238095Y-71178628D01*
X129238095Y-71178628D02*
X129285714Y-71083390D01*
X117454819Y-70666666D02*
X116978628Y-70999999D01*
X117454819Y-71238094D02*
X116454819Y-71238094D01*
X116454819Y-71238094D02*
X116454819Y-70857142D01*
X116454819Y-70857142D02*
X116502438Y-70761904D01*
X116502438Y-70761904D02*
X116550057Y-70714285D01*
X116550057Y-70714285D02*
X116645295Y-70666666D01*
X116645295Y-70666666D02*
X116788152Y-70666666D01*
X116788152Y-70666666D02*
X116883390Y-70714285D01*
X116883390Y-70714285D02*
X116931009Y-70761904D01*
X116931009Y-70761904D02*
X116978628Y-70857142D01*
X116978628Y-70857142D02*
X116978628Y-71238094D01*
X116883390Y-70095237D02*
X116835771Y-70190475D01*
X116835771Y-70190475D02*
X116788152Y-70238094D01*
X116788152Y-70238094D02*
X116692914Y-70285713D01*
X116692914Y-70285713D02*
X116645295Y-70285713D01*
X116645295Y-70285713D02*
X116550057Y-70238094D01*
X116550057Y-70238094D02*
X116502438Y-70190475D01*
X116502438Y-70190475D02*
X116454819Y-70095237D01*
X116454819Y-70095237D02*
X116454819Y-69904761D01*
X116454819Y-69904761D02*
X116502438Y-69809523D01*
X116502438Y-69809523D02*
X116550057Y-69761904D01*
X116550057Y-69761904D02*
X116645295Y-69714285D01*
X116645295Y-69714285D02*
X116692914Y-69714285D01*
X116692914Y-69714285D02*
X116788152Y-69761904D01*
X116788152Y-69761904D02*
X116835771Y-69809523D01*
X116835771Y-69809523D02*
X116883390Y-69904761D01*
X116883390Y-69904761D02*
X116883390Y-70095237D01*
X116883390Y-70095237D02*
X116931009Y-70190475D01*
X116931009Y-70190475D02*
X116978628Y-70238094D01*
X116978628Y-70238094D02*
X117073866Y-70285713D01*
X117073866Y-70285713D02*
X117264342Y-70285713D01*
X117264342Y-70285713D02*
X117359580Y-70238094D01*
X117359580Y-70238094D02*
X117407200Y-70190475D01*
X117407200Y-70190475D02*
X117454819Y-70095237D01*
X117454819Y-70095237D02*
X117454819Y-69904761D01*
X117454819Y-69904761D02*
X117407200Y-69809523D01*
X117407200Y-69809523D02*
X117359580Y-69761904D01*
X117359580Y-69761904D02*
X117264342Y-69714285D01*
X117264342Y-69714285D02*
X117073866Y-69714285D01*
X117073866Y-69714285D02*
X116978628Y-69761904D01*
X116978628Y-69761904D02*
X116931009Y-69809523D01*
X116931009Y-69809523D02*
X116883390Y-69904761D01*
X119245833Y-70154819D02*
X118912500Y-69678628D01*
X118674405Y-70154819D02*
X118674405Y-69154819D01*
X118674405Y-69154819D02*
X119055357Y-69154819D01*
X119055357Y-69154819D02*
X119150595Y-69202438D01*
X119150595Y-69202438D02*
X119198214Y-69250057D01*
X119198214Y-69250057D02*
X119245833Y-69345295D01*
X119245833Y-69345295D02*
X119245833Y-69488152D01*
X119245833Y-69488152D02*
X119198214Y-69583390D01*
X119198214Y-69583390D02*
X119150595Y-69631009D01*
X119150595Y-69631009D02*
X119055357Y-69678628D01*
X119055357Y-69678628D02*
X118674405Y-69678628D01*
X119579167Y-69154819D02*
X120245833Y-69154819D01*
X120245833Y-69154819D02*
X119817262Y-70154819D01*
X135833333Y-54254819D02*
X135500000Y-53778628D01*
X135261905Y-54254819D02*
X135261905Y-53254819D01*
X135261905Y-53254819D02*
X135642857Y-53254819D01*
X135642857Y-53254819D02*
X135738095Y-53302438D01*
X135738095Y-53302438D02*
X135785714Y-53350057D01*
X135785714Y-53350057D02*
X135833333Y-53445295D01*
X135833333Y-53445295D02*
X135833333Y-53588152D01*
X135833333Y-53588152D02*
X135785714Y-53683390D01*
X135785714Y-53683390D02*
X135738095Y-53731009D01*
X135738095Y-53731009D02*
X135642857Y-53778628D01*
X135642857Y-53778628D02*
X135261905Y-53778628D01*
X136690476Y-53254819D02*
X136500000Y-53254819D01*
X136500000Y-53254819D02*
X136404762Y-53302438D01*
X136404762Y-53302438D02*
X136357143Y-53350057D01*
X136357143Y-53350057D02*
X136261905Y-53492914D01*
X136261905Y-53492914D02*
X136214286Y-53683390D01*
X136214286Y-53683390D02*
X136214286Y-54064342D01*
X136214286Y-54064342D02*
X136261905Y-54159580D01*
X136261905Y-54159580D02*
X136309524Y-54207200D01*
X136309524Y-54207200D02*
X136404762Y-54254819D01*
X136404762Y-54254819D02*
X136595238Y-54254819D01*
X136595238Y-54254819D02*
X136690476Y-54207200D01*
X136690476Y-54207200D02*
X136738095Y-54159580D01*
X136738095Y-54159580D02*
X136785714Y-54064342D01*
X136785714Y-54064342D02*
X136785714Y-53826247D01*
X136785714Y-53826247D02*
X136738095Y-53731009D01*
X136738095Y-53731009D02*
X136690476Y-53683390D01*
X136690476Y-53683390D02*
X136595238Y-53635771D01*
X136595238Y-53635771D02*
X136404762Y-53635771D01*
X136404762Y-53635771D02*
X136309524Y-53683390D01*
X136309524Y-53683390D02*
X136261905Y-53731009D01*
X136261905Y-53731009D02*
X136214286Y-53826247D01*
X139121319Y-67666666D02*
X138645128Y-67999999D01*
X139121319Y-68238094D02*
X138121319Y-68238094D01*
X138121319Y-68238094D02*
X138121319Y-67857142D01*
X138121319Y-67857142D02*
X138168938Y-67761904D01*
X138168938Y-67761904D02*
X138216557Y-67714285D01*
X138216557Y-67714285D02*
X138311795Y-67666666D01*
X138311795Y-67666666D02*
X138454652Y-67666666D01*
X138454652Y-67666666D02*
X138549890Y-67714285D01*
X138549890Y-67714285D02*
X138597509Y-67761904D01*
X138597509Y-67761904D02*
X138645128Y-67857142D01*
X138645128Y-67857142D02*
X138645128Y-68238094D01*
X138121319Y-66761904D02*
X138121319Y-67238094D01*
X138121319Y-67238094D02*
X138597509Y-67285713D01*
X138597509Y-67285713D02*
X138549890Y-67238094D01*
X138549890Y-67238094D02*
X138502271Y-67142856D01*
X138502271Y-67142856D02*
X138502271Y-66904761D01*
X138502271Y-66904761D02*
X138549890Y-66809523D01*
X138549890Y-66809523D02*
X138597509Y-66761904D01*
X138597509Y-66761904D02*
X138692747Y-66714285D01*
X138692747Y-66714285D02*
X138930842Y-66714285D01*
X138930842Y-66714285D02*
X139026080Y-66761904D01*
X139026080Y-66761904D02*
X139073700Y-66809523D01*
X139073700Y-66809523D02*
X139121319Y-66904761D01*
X139121319Y-66904761D02*
X139121319Y-67142856D01*
X139121319Y-67142856D02*
X139073700Y-67238094D01*
X139073700Y-67238094D02*
X139026080Y-67285713D01*
X138833333Y-63254819D02*
X138500000Y-62778628D01*
X138261905Y-63254819D02*
X138261905Y-62254819D01*
X138261905Y-62254819D02*
X138642857Y-62254819D01*
X138642857Y-62254819D02*
X138738095Y-62302438D01*
X138738095Y-62302438D02*
X138785714Y-62350057D01*
X138785714Y-62350057D02*
X138833333Y-62445295D01*
X138833333Y-62445295D02*
X138833333Y-62588152D01*
X138833333Y-62588152D02*
X138785714Y-62683390D01*
X138785714Y-62683390D02*
X138738095Y-62731009D01*
X138738095Y-62731009D02*
X138642857Y-62778628D01*
X138642857Y-62778628D02*
X138261905Y-62778628D01*
X139690476Y-62588152D02*
X139690476Y-63254819D01*
X139452381Y-62207200D02*
X139214286Y-62921485D01*
X139214286Y-62921485D02*
X139833333Y-62921485D01*
X159333333Y-79288319D02*
X159000000Y-78812128D01*
X158761905Y-79288319D02*
X158761905Y-78288319D01*
X158761905Y-78288319D02*
X159142857Y-78288319D01*
X159142857Y-78288319D02*
X159238095Y-78335938D01*
X159238095Y-78335938D02*
X159285714Y-78383557D01*
X159285714Y-78383557D02*
X159333333Y-78478795D01*
X159333333Y-78478795D02*
X159333333Y-78621652D01*
X159333333Y-78621652D02*
X159285714Y-78716890D01*
X159285714Y-78716890D02*
X159238095Y-78764509D01*
X159238095Y-78764509D02*
X159142857Y-78812128D01*
X159142857Y-78812128D02*
X158761905Y-78812128D01*
X159666667Y-78288319D02*
X160285714Y-78288319D01*
X160285714Y-78288319D02*
X159952381Y-78669271D01*
X159952381Y-78669271D02*
X160095238Y-78669271D01*
X160095238Y-78669271D02*
X160190476Y-78716890D01*
X160190476Y-78716890D02*
X160238095Y-78764509D01*
X160238095Y-78764509D02*
X160285714Y-78859747D01*
X160285714Y-78859747D02*
X160285714Y-79097842D01*
X160285714Y-79097842D02*
X160238095Y-79193080D01*
X160238095Y-79193080D02*
X160190476Y-79240700D01*
X160190476Y-79240700D02*
X160095238Y-79288319D01*
X160095238Y-79288319D02*
X159809524Y-79288319D01*
X159809524Y-79288319D02*
X159714286Y-79240700D01*
X159714286Y-79240700D02*
X159666667Y-79193080D01*
X131483333Y-60954819D02*
X131150000Y-60478628D01*
X130911905Y-60954819D02*
X130911905Y-59954819D01*
X130911905Y-59954819D02*
X131292857Y-59954819D01*
X131292857Y-59954819D02*
X131388095Y-60002438D01*
X131388095Y-60002438D02*
X131435714Y-60050057D01*
X131435714Y-60050057D02*
X131483333Y-60145295D01*
X131483333Y-60145295D02*
X131483333Y-60288152D01*
X131483333Y-60288152D02*
X131435714Y-60383390D01*
X131435714Y-60383390D02*
X131388095Y-60431009D01*
X131388095Y-60431009D02*
X131292857Y-60478628D01*
X131292857Y-60478628D02*
X130911905Y-60478628D01*
X131864286Y-60050057D02*
X131911905Y-60002438D01*
X131911905Y-60002438D02*
X132007143Y-59954819D01*
X132007143Y-59954819D02*
X132245238Y-59954819D01*
X132245238Y-59954819D02*
X132340476Y-60002438D01*
X132340476Y-60002438D02*
X132388095Y-60050057D01*
X132388095Y-60050057D02*
X132435714Y-60145295D01*
X132435714Y-60145295D02*
X132435714Y-60240533D01*
X132435714Y-60240533D02*
X132388095Y-60383390D01*
X132388095Y-60383390D02*
X131816667Y-60954819D01*
X131816667Y-60954819D02*
X132435714Y-60954819D01*
X156158333Y-54954819D02*
X155825000Y-54478628D01*
X155586905Y-54954819D02*
X155586905Y-53954819D01*
X155586905Y-53954819D02*
X155967857Y-53954819D01*
X155967857Y-53954819D02*
X156063095Y-54002438D01*
X156063095Y-54002438D02*
X156110714Y-54050057D01*
X156110714Y-54050057D02*
X156158333Y-54145295D01*
X156158333Y-54145295D02*
X156158333Y-54288152D01*
X156158333Y-54288152D02*
X156110714Y-54383390D01*
X156110714Y-54383390D02*
X156063095Y-54431009D01*
X156063095Y-54431009D02*
X155967857Y-54478628D01*
X155967857Y-54478628D02*
X155586905Y-54478628D01*
X157110714Y-54954819D02*
X156539286Y-54954819D01*
X156825000Y-54954819D02*
X156825000Y-53954819D01*
X156825000Y-53954819D02*
X156729762Y-54097676D01*
X156729762Y-54097676D02*
X156634524Y-54192914D01*
X156634524Y-54192914D02*
X156539286Y-54240533D01*
X121467261Y-70650057D02*
X121372023Y-70602438D01*
X121372023Y-70602438D02*
X121276785Y-70507200D01*
X121276785Y-70507200D02*
X121133928Y-70364342D01*
X121133928Y-70364342D02*
X121038690Y-70316723D01*
X121038690Y-70316723D02*
X120943452Y-70316723D01*
X120991071Y-70554819D02*
X120895833Y-70507200D01*
X120895833Y-70507200D02*
X120800595Y-70411961D01*
X120800595Y-70411961D02*
X120752976Y-70221485D01*
X120752976Y-70221485D02*
X120752976Y-69888152D01*
X120752976Y-69888152D02*
X120800595Y-69697676D01*
X120800595Y-69697676D02*
X120895833Y-69602438D01*
X120895833Y-69602438D02*
X120991071Y-69554819D01*
X120991071Y-69554819D02*
X121181547Y-69554819D01*
X121181547Y-69554819D02*
X121276785Y-69602438D01*
X121276785Y-69602438D02*
X121372023Y-69697676D01*
X121372023Y-69697676D02*
X121419642Y-69888152D01*
X121419642Y-69888152D02*
X121419642Y-70221485D01*
X121419642Y-70221485D02*
X121372023Y-70411961D01*
X121372023Y-70411961D02*
X121276785Y-70507200D01*
X121276785Y-70507200D02*
X121181547Y-70554819D01*
X121181547Y-70554819D02*
X120991071Y-70554819D01*
X122276785Y-69554819D02*
X122086309Y-69554819D01*
X122086309Y-69554819D02*
X121991071Y-69602438D01*
X121991071Y-69602438D02*
X121943452Y-69650057D01*
X121943452Y-69650057D02*
X121848214Y-69792914D01*
X121848214Y-69792914D02*
X121800595Y-69983390D01*
X121800595Y-69983390D02*
X121800595Y-70364342D01*
X121800595Y-70364342D02*
X121848214Y-70459580D01*
X121848214Y-70459580D02*
X121895833Y-70507200D01*
X121895833Y-70507200D02*
X121991071Y-70554819D01*
X121991071Y-70554819D02*
X122181547Y-70554819D01*
X122181547Y-70554819D02*
X122276785Y-70507200D01*
X122276785Y-70507200D02*
X122324404Y-70459580D01*
X122324404Y-70459580D02*
X122372023Y-70364342D01*
X122372023Y-70364342D02*
X122372023Y-70126247D01*
X122372023Y-70126247D02*
X122324404Y-70031009D01*
X122324404Y-70031009D02*
X122276785Y-69983390D01*
X122276785Y-69983390D02*
X122181547Y-69935771D01*
X122181547Y-69935771D02*
X121991071Y-69935771D01*
X121991071Y-69935771D02*
X121895833Y-69983390D01*
X121895833Y-69983390D02*
X121848214Y-70031009D01*
X121848214Y-70031009D02*
X121800595Y-70126247D01*
X143967261Y-63650057D02*
X143872023Y-63602438D01*
X143872023Y-63602438D02*
X143776785Y-63507200D01*
X143776785Y-63507200D02*
X143633928Y-63364342D01*
X143633928Y-63364342D02*
X143538690Y-63316723D01*
X143538690Y-63316723D02*
X143443452Y-63316723D01*
X143491071Y-63554819D02*
X143395833Y-63507200D01*
X143395833Y-63507200D02*
X143300595Y-63411961D01*
X143300595Y-63411961D02*
X143252976Y-63221485D01*
X143252976Y-63221485D02*
X143252976Y-62888152D01*
X143252976Y-62888152D02*
X143300595Y-62697676D01*
X143300595Y-62697676D02*
X143395833Y-62602438D01*
X143395833Y-62602438D02*
X143491071Y-62554819D01*
X143491071Y-62554819D02*
X143681547Y-62554819D01*
X143681547Y-62554819D02*
X143776785Y-62602438D01*
X143776785Y-62602438D02*
X143872023Y-62697676D01*
X143872023Y-62697676D02*
X143919642Y-62888152D01*
X143919642Y-62888152D02*
X143919642Y-63221485D01*
X143919642Y-63221485D02*
X143872023Y-63411961D01*
X143872023Y-63411961D02*
X143776785Y-63507200D01*
X143776785Y-63507200D02*
X143681547Y-63554819D01*
X143681547Y-63554819D02*
X143491071Y-63554819D01*
X144824404Y-62554819D02*
X144348214Y-62554819D01*
X144348214Y-62554819D02*
X144300595Y-63031009D01*
X144300595Y-63031009D02*
X144348214Y-62983390D01*
X144348214Y-62983390D02*
X144443452Y-62935771D01*
X144443452Y-62935771D02*
X144681547Y-62935771D01*
X144681547Y-62935771D02*
X144776785Y-62983390D01*
X144776785Y-62983390D02*
X144824404Y-63031009D01*
X144824404Y-63031009D02*
X144872023Y-63126247D01*
X144872023Y-63126247D02*
X144872023Y-63364342D01*
X144872023Y-63364342D02*
X144824404Y-63459580D01*
X144824404Y-63459580D02*
X144776785Y-63507200D01*
X144776785Y-63507200D02*
X144681547Y-63554819D01*
X144681547Y-63554819D02*
X144443452Y-63554819D01*
X144443452Y-63554819D02*
X144348214Y-63507200D01*
X144348214Y-63507200D02*
X144300595Y-63459580D01*
X171510057Y-55090238D02*
X171462438Y-55185476D01*
X171462438Y-55185476D02*
X171367200Y-55280714D01*
X171367200Y-55280714D02*
X171224342Y-55423571D01*
X171224342Y-55423571D02*
X171176723Y-55518809D01*
X171176723Y-55518809D02*
X171176723Y-55614047D01*
X171414819Y-55566428D02*
X171367200Y-55661666D01*
X171367200Y-55661666D02*
X171271961Y-55756904D01*
X171271961Y-55756904D02*
X171081485Y-55804523D01*
X171081485Y-55804523D02*
X170748152Y-55804523D01*
X170748152Y-55804523D02*
X170557676Y-55756904D01*
X170557676Y-55756904D02*
X170462438Y-55661666D01*
X170462438Y-55661666D02*
X170414819Y-55566428D01*
X170414819Y-55566428D02*
X170414819Y-55375952D01*
X170414819Y-55375952D02*
X170462438Y-55280714D01*
X170462438Y-55280714D02*
X170557676Y-55185476D01*
X170557676Y-55185476D02*
X170748152Y-55137857D01*
X170748152Y-55137857D02*
X171081485Y-55137857D01*
X171081485Y-55137857D02*
X171271961Y-55185476D01*
X171271961Y-55185476D02*
X171367200Y-55280714D01*
X171367200Y-55280714D02*
X171414819Y-55375952D01*
X171414819Y-55375952D02*
X171414819Y-55566428D01*
X170748152Y-54280714D02*
X171414819Y-54280714D01*
X170367200Y-54518809D02*
X171081485Y-54756904D01*
X171081485Y-54756904D02*
X171081485Y-54137857D01*
X149899761Y-51090057D02*
X149804523Y-51042438D01*
X149804523Y-51042438D02*
X149709285Y-50947200D01*
X149709285Y-50947200D02*
X149566428Y-50804342D01*
X149566428Y-50804342D02*
X149471190Y-50756723D01*
X149471190Y-50756723D02*
X149375952Y-50756723D01*
X149423571Y-50994819D02*
X149328333Y-50947200D01*
X149328333Y-50947200D02*
X149233095Y-50851961D01*
X149233095Y-50851961D02*
X149185476Y-50661485D01*
X149185476Y-50661485D02*
X149185476Y-50328152D01*
X149185476Y-50328152D02*
X149233095Y-50137676D01*
X149233095Y-50137676D02*
X149328333Y-50042438D01*
X149328333Y-50042438D02*
X149423571Y-49994819D01*
X149423571Y-49994819D02*
X149614047Y-49994819D01*
X149614047Y-49994819D02*
X149709285Y-50042438D01*
X149709285Y-50042438D02*
X149804523Y-50137676D01*
X149804523Y-50137676D02*
X149852142Y-50328152D01*
X149852142Y-50328152D02*
X149852142Y-50661485D01*
X149852142Y-50661485D02*
X149804523Y-50851961D01*
X149804523Y-50851961D02*
X149709285Y-50947200D01*
X149709285Y-50947200D02*
X149614047Y-50994819D01*
X149614047Y-50994819D02*
X149423571Y-50994819D01*
X150233095Y-50090057D02*
X150280714Y-50042438D01*
X150280714Y-50042438D02*
X150375952Y-49994819D01*
X150375952Y-49994819D02*
X150614047Y-49994819D01*
X150614047Y-49994819D02*
X150709285Y-50042438D01*
X150709285Y-50042438D02*
X150756904Y-50090057D01*
X150756904Y-50090057D02*
X150804523Y-50185295D01*
X150804523Y-50185295D02*
X150804523Y-50280533D01*
X150804523Y-50280533D02*
X150756904Y-50423390D01*
X150756904Y-50423390D02*
X150185476Y-50994819D01*
X150185476Y-50994819D02*
X150804523Y-50994819D01*
X161967261Y-71150057D02*
X161872023Y-71102438D01*
X161872023Y-71102438D02*
X161776785Y-71007200D01*
X161776785Y-71007200D02*
X161633928Y-70864342D01*
X161633928Y-70864342D02*
X161538690Y-70816723D01*
X161538690Y-70816723D02*
X161443452Y-70816723D01*
X161491071Y-71054819D02*
X161395833Y-71007200D01*
X161395833Y-71007200D02*
X161300595Y-70911961D01*
X161300595Y-70911961D02*
X161252976Y-70721485D01*
X161252976Y-70721485D02*
X161252976Y-70388152D01*
X161252976Y-70388152D02*
X161300595Y-70197676D01*
X161300595Y-70197676D02*
X161395833Y-70102438D01*
X161395833Y-70102438D02*
X161491071Y-70054819D01*
X161491071Y-70054819D02*
X161681547Y-70054819D01*
X161681547Y-70054819D02*
X161776785Y-70102438D01*
X161776785Y-70102438D02*
X161872023Y-70197676D01*
X161872023Y-70197676D02*
X161919642Y-70388152D01*
X161919642Y-70388152D02*
X161919642Y-70721485D01*
X161919642Y-70721485D02*
X161872023Y-70911961D01*
X161872023Y-70911961D02*
X161776785Y-71007200D01*
X161776785Y-71007200D02*
X161681547Y-71054819D01*
X161681547Y-71054819D02*
X161491071Y-71054819D01*
X162872023Y-71054819D02*
X162300595Y-71054819D01*
X162586309Y-71054819D02*
X162586309Y-70054819D01*
X162586309Y-70054819D02*
X162491071Y-70197676D01*
X162491071Y-70197676D02*
X162395833Y-70292914D01*
X162395833Y-70292914D02*
X162300595Y-70340533D01*
X162484819Y-86103333D02*
X163199104Y-86103333D01*
X163199104Y-86103333D02*
X163341961Y-86150952D01*
X163341961Y-86150952D02*
X163437200Y-86246190D01*
X163437200Y-86246190D02*
X163484819Y-86389047D01*
X163484819Y-86389047D02*
X163484819Y-86484285D01*
X163484819Y-85103333D02*
X163484819Y-85674761D01*
X163484819Y-85389047D02*
X162484819Y-85389047D01*
X162484819Y-85389047D02*
X162627676Y-85484285D01*
X162627676Y-85484285D02*
X162722914Y-85579523D01*
X162722914Y-85579523D02*
X162770533Y-85674761D01*
X170869819Y-60238094D02*
X169869819Y-60238094D01*
X169869819Y-60238094D02*
X169869819Y-59999999D01*
X169869819Y-59999999D02*
X169917438Y-59857142D01*
X169917438Y-59857142D02*
X170012676Y-59761904D01*
X170012676Y-59761904D02*
X170107914Y-59714285D01*
X170107914Y-59714285D02*
X170298390Y-59666666D01*
X170298390Y-59666666D02*
X170441247Y-59666666D01*
X170441247Y-59666666D02*
X170631723Y-59714285D01*
X170631723Y-59714285D02*
X170726961Y-59761904D01*
X170726961Y-59761904D02*
X170822200Y-59857142D01*
X170822200Y-59857142D02*
X170869819Y-59999999D01*
X170869819Y-59999999D02*
X170869819Y-60238094D01*
X170203152Y-58809523D02*
X170869819Y-58809523D01*
X169822200Y-59047618D02*
X170536485Y-59285713D01*
X170536485Y-59285713D02*
X170536485Y-58666666D01*
X127034819Y-64238094D02*
X126034819Y-64238094D01*
X126034819Y-64238094D02*
X126034819Y-63999999D01*
X126034819Y-63999999D02*
X126082438Y-63857142D01*
X126082438Y-63857142D02*
X126177676Y-63761904D01*
X126177676Y-63761904D02*
X126272914Y-63714285D01*
X126272914Y-63714285D02*
X126463390Y-63666666D01*
X126463390Y-63666666D02*
X126606247Y-63666666D01*
X126606247Y-63666666D02*
X126796723Y-63714285D01*
X126796723Y-63714285D02*
X126891961Y-63761904D01*
X126891961Y-63761904D02*
X126987200Y-63857142D01*
X126987200Y-63857142D02*
X127034819Y-63999999D01*
X127034819Y-63999999D02*
X127034819Y-64238094D01*
X126130057Y-63285713D02*
X126082438Y-63238094D01*
X126082438Y-63238094D02*
X126034819Y-63142856D01*
X126034819Y-63142856D02*
X126034819Y-62904761D01*
X126034819Y-62904761D02*
X126082438Y-62809523D01*
X126082438Y-62809523D02*
X126130057Y-62761904D01*
X126130057Y-62761904D02*
X126225295Y-62714285D01*
X126225295Y-62714285D02*
X126320533Y-62714285D01*
X126320533Y-62714285D02*
X126463390Y-62761904D01*
X126463390Y-62761904D02*
X127034819Y-63333332D01*
X127034819Y-63333332D02*
X127034819Y-62714285D01*
X141261905Y-50869819D02*
X141261905Y-49869819D01*
X141261905Y-49869819D02*
X141500000Y-49869819D01*
X141500000Y-49869819D02*
X141642857Y-49917438D01*
X141642857Y-49917438D02*
X141738095Y-50012676D01*
X141738095Y-50012676D02*
X141785714Y-50107914D01*
X141785714Y-50107914D02*
X141833333Y-50298390D01*
X141833333Y-50298390D02*
X141833333Y-50441247D01*
X141833333Y-50441247D02*
X141785714Y-50631723D01*
X141785714Y-50631723D02*
X141738095Y-50726961D01*
X141738095Y-50726961D02*
X141642857Y-50822200D01*
X141642857Y-50822200D02*
X141500000Y-50869819D01*
X141500000Y-50869819D02*
X141261905Y-50869819D01*
X142785714Y-50869819D02*
X142214286Y-50869819D01*
X142500000Y-50869819D02*
X142500000Y-49869819D01*
X142500000Y-49869819D02*
X142404762Y-50012676D01*
X142404762Y-50012676D02*
X142309524Y-50107914D01*
X142309524Y-50107914D02*
X142214286Y-50155533D01*
X153859580Y-72166666D02*
X153907200Y-72214285D01*
X153907200Y-72214285D02*
X153954819Y-72357142D01*
X153954819Y-72357142D02*
X153954819Y-72452380D01*
X153954819Y-72452380D02*
X153907200Y-72595237D01*
X153907200Y-72595237D02*
X153811961Y-72690475D01*
X153811961Y-72690475D02*
X153716723Y-72738094D01*
X153716723Y-72738094D02*
X153526247Y-72785713D01*
X153526247Y-72785713D02*
X153383390Y-72785713D01*
X153383390Y-72785713D02*
X153192914Y-72738094D01*
X153192914Y-72738094D02*
X153097676Y-72690475D01*
X153097676Y-72690475D02*
X153002438Y-72595237D01*
X153002438Y-72595237D02*
X152954819Y-72452380D01*
X152954819Y-72452380D02*
X152954819Y-72357142D01*
X152954819Y-72357142D02*
X153002438Y-72214285D01*
X153002438Y-72214285D02*
X153050057Y-72166666D01*
X152954819Y-71309523D02*
X152954819Y-71499999D01*
X152954819Y-71499999D02*
X153002438Y-71595237D01*
X153002438Y-71595237D02*
X153050057Y-71642856D01*
X153050057Y-71642856D02*
X153192914Y-71738094D01*
X153192914Y-71738094D02*
X153383390Y-71785713D01*
X153383390Y-71785713D02*
X153764342Y-71785713D01*
X153764342Y-71785713D02*
X153859580Y-71738094D01*
X153859580Y-71738094D02*
X153907200Y-71690475D01*
X153907200Y-71690475D02*
X153954819Y-71595237D01*
X153954819Y-71595237D02*
X153954819Y-71404761D01*
X153954819Y-71404761D02*
X153907200Y-71309523D01*
X153907200Y-71309523D02*
X153859580Y-71261904D01*
X153859580Y-71261904D02*
X153764342Y-71214285D01*
X153764342Y-71214285D02*
X153526247Y-71214285D01*
X153526247Y-71214285D02*
X153431009Y-71261904D01*
X153431009Y-71261904D02*
X153383390Y-71309523D01*
X153383390Y-71309523D02*
X153335771Y-71404761D01*
X153335771Y-71404761D02*
X153335771Y-71595237D01*
X153335771Y-71595237D02*
X153383390Y-71690475D01*
X153383390Y-71690475D02*
X153431009Y-71738094D01*
X153431009Y-71738094D02*
X153526247Y-71785713D01*
X150359580Y-70166666D02*
X150407200Y-70214285D01*
X150407200Y-70214285D02*
X150454819Y-70357142D01*
X150454819Y-70357142D02*
X150454819Y-70452380D01*
X150454819Y-70452380D02*
X150407200Y-70595237D01*
X150407200Y-70595237D02*
X150311961Y-70690475D01*
X150311961Y-70690475D02*
X150216723Y-70738094D01*
X150216723Y-70738094D02*
X150026247Y-70785713D01*
X150026247Y-70785713D02*
X149883390Y-70785713D01*
X149883390Y-70785713D02*
X149692914Y-70738094D01*
X149692914Y-70738094D02*
X149597676Y-70690475D01*
X149597676Y-70690475D02*
X149502438Y-70595237D01*
X149502438Y-70595237D02*
X149454819Y-70452380D01*
X149454819Y-70452380D02*
X149454819Y-70357142D01*
X149454819Y-70357142D02*
X149502438Y-70214285D01*
X149502438Y-70214285D02*
X149550057Y-70166666D01*
X149454819Y-69261904D02*
X149454819Y-69738094D01*
X149454819Y-69738094D02*
X149931009Y-69785713D01*
X149931009Y-69785713D02*
X149883390Y-69738094D01*
X149883390Y-69738094D02*
X149835771Y-69642856D01*
X149835771Y-69642856D02*
X149835771Y-69404761D01*
X149835771Y-69404761D02*
X149883390Y-69309523D01*
X149883390Y-69309523D02*
X149931009Y-69261904D01*
X149931009Y-69261904D02*
X150026247Y-69214285D01*
X150026247Y-69214285D02*
X150264342Y-69214285D01*
X150264342Y-69214285D02*
X150359580Y-69261904D01*
X150359580Y-69261904D02*
X150407200Y-69309523D01*
X150407200Y-69309523D02*
X150454819Y-69404761D01*
X150454819Y-69404761D02*
X150454819Y-69642856D01*
X150454819Y-69642856D02*
X150407200Y-69738094D01*
X150407200Y-69738094D02*
X150359580Y-69785713D01*
X147859580Y-74666666D02*
X147907200Y-74714285D01*
X147907200Y-74714285D02*
X147954819Y-74857142D01*
X147954819Y-74857142D02*
X147954819Y-74952380D01*
X147954819Y-74952380D02*
X147907200Y-75095237D01*
X147907200Y-75095237D02*
X147811961Y-75190475D01*
X147811961Y-75190475D02*
X147716723Y-75238094D01*
X147716723Y-75238094D02*
X147526247Y-75285713D01*
X147526247Y-75285713D02*
X147383390Y-75285713D01*
X147383390Y-75285713D02*
X147192914Y-75238094D01*
X147192914Y-75238094D02*
X147097676Y-75190475D01*
X147097676Y-75190475D02*
X147002438Y-75095237D01*
X147002438Y-75095237D02*
X146954819Y-74952380D01*
X146954819Y-74952380D02*
X146954819Y-74857142D01*
X146954819Y-74857142D02*
X147002438Y-74714285D01*
X147002438Y-74714285D02*
X147050057Y-74666666D01*
X147288152Y-73809523D02*
X147954819Y-73809523D01*
X146907200Y-74047618D02*
X147621485Y-74285713D01*
X147621485Y-74285713D02*
X147621485Y-73666666D01*
X145654580Y-70166666D02*
X145702200Y-70214285D01*
X145702200Y-70214285D02*
X145749819Y-70357142D01*
X145749819Y-70357142D02*
X145749819Y-70452380D01*
X145749819Y-70452380D02*
X145702200Y-70595237D01*
X145702200Y-70595237D02*
X145606961Y-70690475D01*
X145606961Y-70690475D02*
X145511723Y-70738094D01*
X145511723Y-70738094D02*
X145321247Y-70785713D01*
X145321247Y-70785713D02*
X145178390Y-70785713D01*
X145178390Y-70785713D02*
X144987914Y-70738094D01*
X144987914Y-70738094D02*
X144892676Y-70690475D01*
X144892676Y-70690475D02*
X144797438Y-70595237D01*
X144797438Y-70595237D02*
X144749819Y-70452380D01*
X144749819Y-70452380D02*
X144749819Y-70357142D01*
X144749819Y-70357142D02*
X144797438Y-70214285D01*
X144797438Y-70214285D02*
X144845057Y-70166666D01*
X144749819Y-69833332D02*
X144749819Y-69214285D01*
X144749819Y-69214285D02*
X145130771Y-69547618D01*
X145130771Y-69547618D02*
X145130771Y-69404761D01*
X145130771Y-69404761D02*
X145178390Y-69309523D01*
X145178390Y-69309523D02*
X145226009Y-69261904D01*
X145226009Y-69261904D02*
X145321247Y-69214285D01*
X145321247Y-69214285D02*
X145559342Y-69214285D01*
X145559342Y-69214285D02*
X145654580Y-69261904D01*
X145654580Y-69261904D02*
X145702200Y-69309523D01*
X145702200Y-69309523D02*
X145749819Y-69404761D01*
X145749819Y-69404761D02*
X145749819Y-69690475D01*
X145749819Y-69690475D02*
X145702200Y-69785713D01*
X145702200Y-69785713D02*
X145654580Y-69833332D01*
X143424580Y-73421666D02*
X143472200Y-73469285D01*
X143472200Y-73469285D02*
X143519819Y-73612142D01*
X143519819Y-73612142D02*
X143519819Y-73707380D01*
X143519819Y-73707380D02*
X143472200Y-73850237D01*
X143472200Y-73850237D02*
X143376961Y-73945475D01*
X143376961Y-73945475D02*
X143281723Y-73993094D01*
X143281723Y-73993094D02*
X143091247Y-74040713D01*
X143091247Y-74040713D02*
X142948390Y-74040713D01*
X142948390Y-74040713D02*
X142757914Y-73993094D01*
X142757914Y-73993094D02*
X142662676Y-73945475D01*
X142662676Y-73945475D02*
X142567438Y-73850237D01*
X142567438Y-73850237D02*
X142519819Y-73707380D01*
X142519819Y-73707380D02*
X142519819Y-73612142D01*
X142519819Y-73612142D02*
X142567438Y-73469285D01*
X142567438Y-73469285D02*
X142615057Y-73421666D01*
X142615057Y-73040713D02*
X142567438Y-72993094D01*
X142567438Y-72993094D02*
X142519819Y-72897856D01*
X142519819Y-72897856D02*
X142519819Y-72659761D01*
X142519819Y-72659761D02*
X142567438Y-72564523D01*
X142567438Y-72564523D02*
X142615057Y-72516904D01*
X142615057Y-72516904D02*
X142710295Y-72469285D01*
X142710295Y-72469285D02*
X142805533Y-72469285D01*
X142805533Y-72469285D02*
X142948390Y-72516904D01*
X142948390Y-72516904D02*
X143519819Y-73088332D01*
X143519819Y-73088332D02*
X143519819Y-72469285D01*
X139929580Y-71941666D02*
X139977200Y-71989285D01*
X139977200Y-71989285D02*
X140024819Y-72132142D01*
X140024819Y-72132142D02*
X140024819Y-72227380D01*
X140024819Y-72227380D02*
X139977200Y-72370237D01*
X139977200Y-72370237D02*
X139881961Y-72465475D01*
X139881961Y-72465475D02*
X139786723Y-72513094D01*
X139786723Y-72513094D02*
X139596247Y-72560713D01*
X139596247Y-72560713D02*
X139453390Y-72560713D01*
X139453390Y-72560713D02*
X139262914Y-72513094D01*
X139262914Y-72513094D02*
X139167676Y-72465475D01*
X139167676Y-72465475D02*
X139072438Y-72370237D01*
X139072438Y-72370237D02*
X139024819Y-72227380D01*
X139024819Y-72227380D02*
X139024819Y-72132142D01*
X139024819Y-72132142D02*
X139072438Y-71989285D01*
X139072438Y-71989285D02*
X139120057Y-71941666D01*
X140024819Y-70989285D02*
X140024819Y-71560713D01*
X140024819Y-71274999D02*
X139024819Y-71274999D01*
X139024819Y-71274999D02*
X139167676Y-71370237D01*
X139167676Y-71370237D02*
X139262914Y-71465475D01*
X139262914Y-71465475D02*
X139310533Y-71560713D01*
D11*
%TO.C,Q3*%
X123500000Y-55005000D02*
G75*
G02*
X118500000Y-55005000I-2500000J0D01*
G01*
X118500000Y-55005000D02*
G75*
G02*
X123500000Y-55005000I2500000J0D01*
G01*
X120999538Y-52015000D02*
G75*
G02*
X122544830Y-57565000I462J-2990000D01*
G01*
X119455170Y-57564999D02*
G75*
G02*
X121000462Y-52015001I1544830J2559999D01*
G01*
X119455000Y-57565000D02*
X122545000Y-57565000D01*
%TO.C,R14*%
X158787500Y-73000000D02*
X155387500Y-73000000D01*
X155387500Y-75000000D02*
X158787500Y-75000000D01*
X158787500Y-75000000D02*
X158787500Y-73000000D01*
X155387500Y-73000000D02*
X155387500Y-75000000D01*
%TO.C,R13*%
X167500000Y-72800000D02*
X170500000Y-72800000D01*
X167500000Y-71200000D02*
X167500000Y-72800000D01*
X170500000Y-71200000D02*
X167500000Y-71200000D01*
X170500000Y-72800000D02*
X170500000Y-71200000D01*
%TO.C,R12*%
X155112500Y-64000000D02*
X151712500Y-64000000D01*
X151712500Y-66000000D02*
X155112500Y-66000000D01*
X155112500Y-66000000D02*
X155112500Y-64000000D01*
X151712500Y-64000000D02*
X151712500Y-66000000D01*
%TO.C,R9*%
X126800000Y-70500000D02*
X130200000Y-70500000D01*
X130200000Y-68500000D02*
X126800000Y-68500000D01*
X126800000Y-68500000D02*
X126800000Y-70500000D01*
X130200000Y-70500000D02*
X130200000Y-68500000D01*
%TO.C,R8*%
X117510000Y-73450000D02*
X117510000Y-71550000D01*
X116510000Y-73450000D02*
X117510000Y-73450000D01*
X116510000Y-71550000D02*
X116510000Y-73450000D01*
X117510000Y-71550000D02*
X116510000Y-71550000D01*
%TO.C,R7*%
X117712500Y-69000000D02*
X121112500Y-69000000D01*
X121112500Y-67000000D02*
X117712500Y-67000000D01*
X117712500Y-67000000D02*
X117712500Y-69000000D01*
X121112500Y-69000000D02*
X121112500Y-67000000D01*
%TO.C,R6*%
X137700000Y-54500000D02*
X134300000Y-54500000D01*
X134300000Y-56500000D02*
X137700000Y-56500000D01*
X137700000Y-56500000D02*
X137700000Y-54500000D01*
X134300000Y-54500000D02*
X134300000Y-56500000D01*
%TO.C,R5*%
X140500000Y-68450000D02*
X140500000Y-66550000D01*
X139500000Y-68450000D02*
X140500000Y-68450000D01*
X139500000Y-66550000D02*
X139500000Y-68450000D01*
X140500000Y-66550000D02*
X139500000Y-66550000D01*
%TO.C,R4*%
X140700000Y-63500000D02*
X137300000Y-63500000D01*
X137300000Y-65500000D02*
X140700000Y-65500000D01*
X140700000Y-65500000D02*
X140700000Y-63500000D01*
X137300000Y-63500000D02*
X137300000Y-65500000D01*
%TO.C,R3*%
X160450000Y-77000000D02*
X158550000Y-77000000D01*
X160450000Y-78000000D02*
X160450000Y-77000000D01*
X158550000Y-78000000D02*
X160450000Y-78000000D01*
X158550000Y-77000000D02*
X158550000Y-78000000D01*
%TO.C,R2*%
X133325000Y-58200000D02*
X130325000Y-58200000D01*
X133325000Y-59800000D02*
X133325000Y-58200000D01*
X130325000Y-59800000D02*
X133325000Y-59800000D01*
X130325000Y-58200000D02*
X130325000Y-59800000D01*
%TO.C,R1*%
X154825000Y-56800000D02*
X157825000Y-56800000D01*
X154825000Y-55200000D02*
X154825000Y-56800000D01*
X157825000Y-55200000D02*
X154825000Y-55200000D01*
X157825000Y-56800000D02*
X157825000Y-55200000D01*
%TO.C,Q6*%
X121562500Y-70940000D02*
X120912500Y-70940000D01*
X121562500Y-70940000D02*
X122212500Y-70940000D01*
X121562500Y-74060000D02*
X120912500Y-74060000D01*
X121562500Y-74060000D02*
X122212500Y-74060000D01*
X120400000Y-70990000D02*
X120160000Y-70660000D01*
X120640000Y-70660000D01*
X120400000Y-70990000D01*
G36*
X120400000Y-70990000D02*
G01*
X120160000Y-70660000D01*
X120640000Y-70660000D01*
X120400000Y-70990000D01*
G37*
%TO.C,Q5*%
X144062500Y-63940000D02*
X143412500Y-63940000D01*
X144062500Y-63940000D02*
X144712500Y-63940000D01*
X144062500Y-67060000D02*
X143412500Y-67060000D01*
X144062500Y-67060000D02*
X144712500Y-67060000D01*
X142900000Y-63990000D02*
X142660000Y-63660000D01*
X143140000Y-63660000D01*
X142900000Y-63990000D01*
G36*
X142900000Y-63990000D02*
G01*
X142660000Y-63660000D01*
X143140000Y-63660000D01*
X142900000Y-63990000D01*
G37*
%TO.C,Q4*%
X169500000Y-54995000D02*
G75*
G02*
X164500000Y-54995000I-2500000J0D01*
G01*
X164500000Y-54995000D02*
G75*
G02*
X169500000Y-54995000I2500000J0D01*
G01*
X167000462Y-57985000D02*
G75*
G02*
X165455170Y-52435000I-462J2990000D01*
G01*
X168544830Y-52435001D02*
G75*
G02*
X166999538Y-57984999I-1544830J-2559999D01*
G01*
X168545000Y-52435000D02*
X165455000Y-52435000D01*
%TO.C,Q2*%
X152495000Y-54500000D02*
G75*
G02*
X147495000Y-54500000I-2500000J0D01*
G01*
X147495000Y-54500000D02*
G75*
G02*
X152495000Y-54500000I2500000J0D01*
G01*
X152985000Y-54499538D02*
G75*
G02*
X147435000Y-56044830I-2990000J-462D01*
G01*
X147435001Y-52955170D02*
G75*
G02*
X152984999Y-54500462I2559999J-1544830D01*
G01*
X147435000Y-52955000D02*
X147435000Y-56045000D01*
%TO.C,Q1*%
X162062500Y-71440000D02*
X161412500Y-71440000D01*
X162062500Y-71440000D02*
X162712500Y-71440000D01*
X162062500Y-74560000D02*
X161412500Y-74560000D01*
X162062500Y-74560000D02*
X162712500Y-74560000D01*
X160900000Y-71490000D02*
X160660000Y-71160000D01*
X161140000Y-71160000D01*
X160900000Y-71490000D01*
G36*
X160900000Y-71490000D02*
G01*
X160660000Y-71160000D01*
X161140000Y-71160000D01*
X160900000Y-71490000D01*
G37*
%TO.C,J1*%
X162030000Y-88370000D02*
X126350000Y-88370000D01*
X159430000Y-85770000D02*
X162030000Y-85770000D01*
X162030000Y-85770000D02*
X162030000Y-88370000D01*
X126350000Y-83170000D02*
X126350000Y-88370000D01*
X159430000Y-83170000D02*
X159430000Y-85770000D01*
X159430000Y-83170000D02*
X126350000Y-83170000D01*
X160700000Y-83170000D02*
X162030000Y-83170000D01*
X162030000Y-83170000D02*
X162030000Y-84500000D01*
D12*
%TO.C,D4*%
X165392789Y-65341718D02*
G75*
G02*
X168610000Y-65339999I1607211J2611718D01*
G01*
X165400000Y-65340000D02*
X168610000Y-65340000D01*
%TO.C,D2*%
X119892789Y-64841718D02*
G75*
G02*
X123110000Y-64839999I1607211J2611718D01*
G01*
X119900000Y-64840000D02*
X123110000Y-64840000D01*
%TO.C,D1*%
X144611718Y-56607211D02*
G75*
G02*
X144609999Y-53390000I-2611718J1607211D01*
G01*
X144610000Y-56600000D02*
X144610000Y-53390000D01*
D11*
%TO.C,C6*%
X154500000Y-69800000D02*
X154500000Y-71200000D01*
X155500000Y-71200000D02*
X155500000Y-69800000D01*
X154500001Y-69800000D02*
G75*
G02*
X155499999Y-69800000I499999J-269450D01*
G01*
X155500000Y-71200000D02*
G75*
G02*
X154500000Y-71200000I-500000J269451D01*
G01*
%TO.C,C5*%
X152300002Y-72575000D02*
X152300000Y-69975000D01*
X150699998Y-69975000D02*
X150700000Y-72575000D01*
X152300001Y-72574999D02*
G75*
G02*
X150700001Y-72574999I-800000J840223D01*
G01*
X150699999Y-69975001D02*
G75*
G02*
X152299999Y-69975001I800000J-840223D01*
G01*
%TO.C,C4*%
X148725000Y-73075000D02*
X148725000Y-74475000D01*
X149725000Y-74475000D02*
X149725000Y-73075000D01*
X148725001Y-73075000D02*
G75*
G02*
X149724999Y-73075000I499999J-269450D01*
G01*
X149725000Y-74475000D02*
G75*
G02*
X148725000Y-74475000I-500000J269451D01*
G01*
%TO.C,C3*%
X147525002Y-73075000D02*
X147525000Y-70475000D01*
X145924998Y-70475000D02*
X145925000Y-73075000D01*
X147525001Y-73074999D02*
G75*
G02*
X145925001Y-73074999I-800000J840223D01*
G01*
X145924999Y-70475001D02*
G75*
G02*
X147524999Y-70475001I800000J-840223D01*
G01*
%TO.C,C2*%
X143725000Y-72555000D02*
X143725000Y-73955000D01*
X144725000Y-73955000D02*
X144725000Y-72555000D01*
X143725001Y-72555000D02*
G75*
G02*
X144724999Y-72555000I499999J-269450D01*
G01*
X144725000Y-73955000D02*
G75*
G02*
X143725000Y-73955000I-500000J269451D01*
G01*
%TO.C,C1*%
X141800002Y-73075000D02*
X141800000Y-70475000D01*
X140199998Y-70475000D02*
X140200000Y-73075000D01*
X141800001Y-73074999D02*
G75*
G02*
X140200001Y-73074999I-800000J840223D01*
G01*
X140199999Y-70475001D02*
G75*
G02*
X141799999Y-70475001I800000J-840223D01*
G01*
%TD*%
M02*
