%TF.GenerationSoftware,KiCad,Pcbnew,8.0.1*%
%TF.CreationDate,2024-03-25T00:54:51+02:00*%
%TF.ProjectId,3088,33303838-2e6b-4696-9361-645f70636258,rev?*%
%TF.SameCoordinates,Original*%
%TF.FileFunction,Soldermask,Top*%
%TF.FilePolarity,Negative*%
%FSLAX46Y46*%
G04 Gerber Fmt 4.6, Leading zero omitted, Abs format (unit mm)*
G04 Created by KiCad (PCBNEW 8.0.1) date 2024-03-25 00:54:51*
%MOMM*%
%LPD*%
G01*
G04 APERTURE LIST*
G04 Aperture macros list*
%AMRoundRect*
0 Rectangle with rounded corners*
0 $1 Rounding radius*
0 $2 $3 $4 $5 $6 $7 $8 $9 X,Y pos of 4 corners*
0 Add a 4 corners polygon primitive as box body*
4,1,4,$2,$3,$4,$5,$6,$7,$8,$9,$2,$3,0*
0 Add four circle primitives for the rounded corners*
1,1,$1+$1,$2,$3*
1,1,$1+$1,$4,$5*
1,1,$1+$1,$6,$7*
1,1,$1+$1,$8,$9*
0 Add four rect primitives between the rounded corners*
20,1,$1+$1,$2,$3,$4,$5,0*
20,1,$1+$1,$4,$5,$6,$7,0*
20,1,$1+$1,$6,$7,$8,$9,0*
20,1,$1+$1,$8,$9,$2,$3,0*%
G04 Aperture macros list end*
%ADD10C,1.800000*%
%ADD11R,1.800000X1.800000*%
%ADD12RoundRect,0.250000X-0.262500X-0.450000X0.262500X-0.450000X0.262500X0.450000X-0.262500X0.450000X0*%
%ADD13RoundRect,0.200000X-0.200000X-0.275000X0.200000X-0.275000X0.200000X0.275000X-0.200000X0.275000X0*%
%ADD14RoundRect,0.250000X0.262500X0.450000X-0.262500X0.450000X-0.262500X-0.450000X0.262500X-0.450000X0*%
%ADD15RoundRect,0.135000X0.185000X-0.135000X0.185000X0.135000X-0.185000X0.135000X-0.185000X-0.135000X0*%
%ADD16RoundRect,0.135000X0.135000X0.185000X-0.135000X0.185000X-0.135000X-0.185000X0.135000X-0.185000X0*%
%ADD17RoundRect,0.200000X0.200000X0.275000X-0.200000X0.275000X-0.200000X-0.275000X0.200000X-0.275000X0*%
%ADD18RoundRect,0.150000X-0.587500X-0.150000X0.587500X-0.150000X0.587500X0.150000X-0.587500X0.150000X0*%
%ADD19O,1.700000X1.700000*%
%ADD20R,1.700000X1.700000*%
%ADD21R,2.000000X2.000000*%
%ADD22C,2.000000*%
%ADD23RoundRect,0.140000X0.170000X-0.140000X0.170000X0.140000X-0.170000X0.140000X-0.170000X-0.140000X0*%
%ADD24RoundRect,0.225000X0.250000X-0.225000X0.250000X0.225000X-0.250000X0.225000X-0.250000X-0.225000X0*%
G04 APERTURE END LIST*
D10*
%TO.C,Q3*%
X121000000Y-53735000D03*
D11*
X121000000Y-56275000D03*
%TD*%
D12*
%TO.C,R14*%
X156175000Y-74000000D03*
X158000000Y-74000000D03*
%TD*%
D13*
%TO.C,R13*%
X168175000Y-72000000D03*
X169825000Y-72000000D03*
%TD*%
D12*
%TO.C,R12*%
X152500000Y-65000000D03*
X154325000Y-65000000D03*
%TD*%
D14*
%TO.C,R9*%
X129412500Y-69500000D03*
X127587500Y-69500000D03*
%TD*%
D15*
%TO.C,R8*%
X117010000Y-73010000D03*
X117010000Y-71990000D03*
%TD*%
D14*
%TO.C,R7*%
X120325000Y-68000000D03*
X118500000Y-68000000D03*
%TD*%
D12*
%TO.C,R6*%
X135087500Y-55500000D03*
X136912500Y-55500000D03*
%TD*%
D15*
%TO.C,R5*%
X140000000Y-68010000D03*
X140000000Y-66990000D03*
%TD*%
D12*
%TO.C,R4*%
X138087500Y-64500000D03*
X139912500Y-64500000D03*
%TD*%
D16*
%TO.C,R3*%
X160010000Y-77500000D03*
X158990000Y-77500000D03*
%TD*%
D17*
%TO.C,R2*%
X132650000Y-59000000D03*
X131000000Y-59000000D03*
%TD*%
D13*
%TO.C,R1*%
X155500000Y-56000000D03*
X157150000Y-56000000D03*
%TD*%
D18*
%TO.C,Q6*%
X120625000Y-71550000D03*
X120625000Y-73450000D03*
X122500000Y-72500000D03*
%TD*%
%TO.C,Q5*%
X143125000Y-64550000D03*
X143125000Y-66450000D03*
X145000000Y-65500000D03*
%TD*%
D10*
%TO.C,Q4*%
X167000000Y-56265000D03*
D11*
X167000000Y-53725000D03*
%TD*%
D10*
%TO.C,Q2*%
X151265000Y-54500000D03*
D11*
X148725000Y-54500000D03*
%TD*%
D18*
%TO.C,Q1*%
X161125000Y-72050000D03*
X161125000Y-73950000D03*
X163000000Y-73000000D03*
%TD*%
D19*
%TO.C,J1*%
X127680000Y-87040000D03*
X127680000Y-84500000D03*
X130220000Y-87040000D03*
X130220000Y-84500000D03*
X132760000Y-87040000D03*
X132760000Y-84500000D03*
X135300000Y-87040000D03*
X135300000Y-84500000D03*
X137840000Y-87040000D03*
X137840000Y-84500000D03*
X140380000Y-87040000D03*
X140380000Y-84500000D03*
X142920000Y-87040000D03*
X142920000Y-84500000D03*
X145460000Y-87040000D03*
X145460000Y-84500000D03*
X148000000Y-87040000D03*
X148000000Y-84500000D03*
X150540000Y-87040000D03*
X150540000Y-84500000D03*
X153080000Y-87040000D03*
X153080000Y-84500000D03*
X155620000Y-87040000D03*
X155620000Y-84500000D03*
X158160000Y-87040000D03*
X158160000Y-84500000D03*
X160700000Y-87040000D03*
D20*
X160700000Y-84500000D03*
%TD*%
D21*
%TO.C,D4*%
X167000000Y-61460000D03*
D22*
X167000000Y-64000000D03*
%TD*%
D21*
%TO.C,D2*%
X121500000Y-60960000D03*
D22*
X121500000Y-63500000D03*
%TD*%
D21*
%TO.C,D1*%
X140730000Y-55000000D03*
D22*
X143270000Y-55000000D03*
%TD*%
D23*
%TO.C,C6*%
X155000000Y-70980000D03*
X155000000Y-70020000D03*
%TD*%
D24*
%TO.C,C5*%
X151500000Y-72050000D03*
X151500000Y-70500000D03*
%TD*%
D23*
%TO.C,C4*%
X149225000Y-74255000D03*
X149225000Y-73295000D03*
%TD*%
D24*
%TO.C,C3*%
X146725000Y-72550000D03*
X146725000Y-71000000D03*
%TD*%
D23*
%TO.C,C2*%
X144225000Y-73735000D03*
X144225000Y-72775000D03*
%TD*%
D24*
%TO.C,C1*%
X141000000Y-72550000D03*
X141000000Y-71000000D03*
%TD*%
M02*
