%TF.GenerationSoftware,KiCad,Pcbnew,8.0.1*%
%TF.CreationDate,2024-03-25T00:54:51+02:00*%
%TF.ProjectId,3088,33303838-2e6b-4696-9361-645f70636258,rev?*%
%TF.SameCoordinates,Original*%
%TF.FileFunction,Copper,L2,Bot*%
%TF.FilePolarity,Positive*%
%FSLAX46Y46*%
G04 Gerber Fmt 4.6, Leading zero omitted, Abs format (unit mm)*
G04 Created by KiCad (PCBNEW 8.0.1) date 2024-03-25 00:54:51*
%MOMM*%
%LPD*%
G01*
G04 APERTURE LIST*
%TA.AperFunction,ComponentPad*%
%ADD10C,1.800000*%
%TD*%
%TA.AperFunction,ComponentPad*%
%ADD11R,1.800000X1.800000*%
%TD*%
%TA.AperFunction,ComponentPad*%
%ADD12O,1.700000X1.700000*%
%TD*%
%TA.AperFunction,ComponentPad*%
%ADD13R,1.700000X1.700000*%
%TD*%
%TA.AperFunction,ComponentPad*%
%ADD14R,2.000000X2.000000*%
%TD*%
%TA.AperFunction,ComponentPad*%
%ADD15C,2.000000*%
%TD*%
%TA.AperFunction,ViaPad*%
%ADD16C,0.600000*%
%TD*%
G04 APERTURE END LIST*
D10*
%TO.P,Q3,2,E*%
%TO.N,V_out2*%
X121000000Y-53735000D03*
D11*
%TO.P,Q3,1,C*%
%TO.N,power*%
X121000000Y-56275000D03*
%TD*%
D10*
%TO.P,Q4,2,E*%
%TO.N,V_out*%
X167000000Y-56265000D03*
D11*
%TO.P,Q4,1,C*%
%TO.N,power*%
X167000000Y-53725000D03*
%TD*%
D10*
%TO.P,Q2,2,E*%
%TO.N,V_out1*%
X151265000Y-54500000D03*
D11*
%TO.P,Q2,1,C*%
%TO.N,power*%
X148725000Y-54500000D03*
%TD*%
D12*
%TO.P,J1,28,Pin_28*%
%TO.N,unconnected-(J1-Pin_28-Pad28)*%
X127680000Y-87040000D03*
%TO.P,J1,27,Pin_27*%
%TO.N,GND*%
X127680000Y-84500000D03*
%TO.P,J1,26,Pin_26*%
%TO.N,power*%
X130220000Y-87040000D03*
%TO.P,J1,25,Pin_25*%
%TO.N,unconnected-(J1-Pin_25-Pad25)*%
X130220000Y-84500000D03*
%TO.P,J1,24,Pin_24*%
%TO.N,unconnected-(J1-Pin_24-Pad24)*%
X132760000Y-87040000D03*
%TO.P,J1,23,Pin_23*%
%TO.N,MCU2*%
X132760000Y-84500000D03*
%TO.P,J1,22,Pin_22*%
%TO.N,unconnected-(J1-Pin_22-Pad22)*%
X135300000Y-87040000D03*
%TO.P,J1,21,Pin_21*%
%TO.N,GND*%
X135300000Y-84500000D03*
%TO.P,J1,20,Pin_20*%
%TO.N,unconnected-(J1-Pin_20-Pad20)*%
X137840000Y-87040000D03*
%TO.P,J1,19,Pin_19*%
%TO.N,MCU1*%
X137840000Y-84500000D03*
%TO.P,J1,18,Pin_18*%
%TO.N,unconnected-(J1-Pin_18-Pad18)*%
X140380000Y-87040000D03*
%TO.P,J1,17,Pin_17*%
%TO.N,MCU*%
X140380000Y-84500000D03*
%TO.P,J1,16,Pin_16*%
%TO.N,unconnected-(J1-Pin_16-Pad16)*%
X142920000Y-87040000D03*
%TO.P,J1,15,Pin_15*%
%TO.N,GND*%
X142920000Y-84500000D03*
%TO.P,J1,14,Pin_14*%
%TO.N,unconnected-(J1-Pin_14-Pad14)*%
X145460000Y-87040000D03*
%TO.P,J1,13,Pin_13*%
%TO.N,unconnected-(J1-Pin_13-Pad13)*%
X145460000Y-84500000D03*
%TO.P,J1,12,Pin_12*%
%TO.N,unconnected-(J1-Pin_12-Pad12)*%
X148000000Y-87040000D03*
%TO.P,J1,11,Pin_11*%
%TO.N,V_out2*%
X148000000Y-84500000D03*
%TO.P,J1,10,Pin_10*%
%TO.N,unconnected-(J1-Pin_10-Pad10)*%
X150540000Y-87040000D03*
%TO.P,J1,9,Pin_9*%
%TO.N,GND*%
X150540000Y-84500000D03*
%TO.P,J1,8,Pin_8*%
%TO.N,unconnected-(J1-Pin_8-Pad8)*%
X153080000Y-87040000D03*
%TO.P,J1,7,Pin_7*%
%TO.N,V_out1*%
X153080000Y-84500000D03*
%TO.P,J1,6,Pin_6*%
%TO.N,unconnected-(J1-Pin_6-Pad6)*%
X155620000Y-87040000D03*
%TO.P,J1,5,Pin_5*%
%TO.N,V_out*%
X155620000Y-84500000D03*
%TO.P,J1,4,Pin_4*%
%TO.N,power*%
X158160000Y-87040000D03*
%TO.P,J1,3,Pin_3*%
%TO.N,GND*%
X158160000Y-84500000D03*
%TO.P,J1,2,Pin_2*%
%TO.N,unconnected-(J1-Pin_2-Pad2)*%
X160700000Y-87040000D03*
D13*
%TO.P,J1,1,Pin_1*%
%TO.N,unconnected-(J1-Pin_1-Pad1)*%
X160700000Y-84500000D03*
%TD*%
D14*
%TO.P,D4,1*%
%TO.N,Net-(D4-Pad1)*%
X167000000Y-61460000D03*
D15*
%TO.P,D4,2*%
%TO.N,Net-(Q1-D)*%
X167000000Y-64000000D03*
%TD*%
D14*
%TO.P,D2,1*%
%TO.N,Net-(D2-Pad1)*%
X121500000Y-60960000D03*
D15*
%TO.P,D2,2*%
%TO.N,Net-(Q6-D)*%
X121500000Y-63500000D03*
%TD*%
D14*
%TO.P,D1,1*%
%TO.N,Net-(D1-Pad1)*%
X140730000Y-55000000D03*
D15*
%TO.P,D1,2*%
%TO.N,Net-(Q5-D)*%
X143270000Y-55000000D03*
%TD*%
D16*
%TO.N,GND*%
X129000000Y-60000000D03*
X159500000Y-56000000D03*
X159500000Y-74500000D03*
X139500000Y-69500000D03*
X142500000Y-69500000D03*
X118000000Y-74500000D03*
X151000000Y-81500000D03*
X160500000Y-82000000D03*
X170000000Y-73500000D03*
%TD*%
%TA.AperFunction,Conductor*%
%TO.N,GND*%
G36*
X171442539Y-50020185D02*
G01*
X171488294Y-50072989D01*
X171499500Y-50124500D01*
X171499500Y-88875500D01*
X171479815Y-88942539D01*
X171427011Y-88988294D01*
X171375500Y-88999500D01*
X114624500Y-88999500D01*
X114557461Y-88979815D01*
X114511706Y-88927011D01*
X114500500Y-88875500D01*
X114500500Y-87040000D01*
X126324341Y-87040000D01*
X126344936Y-87275403D01*
X126344938Y-87275413D01*
X126406094Y-87503655D01*
X126406096Y-87503659D01*
X126406097Y-87503663D01*
X126410000Y-87512032D01*
X126505965Y-87717830D01*
X126505967Y-87717834D01*
X126614281Y-87872521D01*
X126641505Y-87911401D01*
X126808599Y-88078495D01*
X126905384Y-88146265D01*
X127002165Y-88214032D01*
X127002167Y-88214033D01*
X127002170Y-88214035D01*
X127216337Y-88313903D01*
X127444592Y-88375063D01*
X127632918Y-88391539D01*
X127679999Y-88395659D01*
X127680000Y-88395659D01*
X127680001Y-88395659D01*
X127719234Y-88392226D01*
X127915408Y-88375063D01*
X128143663Y-88313903D01*
X128357830Y-88214035D01*
X128551401Y-88078495D01*
X128718495Y-87911401D01*
X128848425Y-87725842D01*
X128903002Y-87682217D01*
X128972500Y-87675023D01*
X129034855Y-87706546D01*
X129051575Y-87725842D01*
X129181500Y-87911395D01*
X129181505Y-87911401D01*
X129348599Y-88078495D01*
X129445384Y-88146265D01*
X129542165Y-88214032D01*
X129542167Y-88214033D01*
X129542170Y-88214035D01*
X129756337Y-88313903D01*
X129984592Y-88375063D01*
X130172918Y-88391539D01*
X130219999Y-88395659D01*
X130220000Y-88395659D01*
X130220001Y-88395659D01*
X130259234Y-88392226D01*
X130455408Y-88375063D01*
X130683663Y-88313903D01*
X130897830Y-88214035D01*
X131091401Y-88078495D01*
X131258495Y-87911401D01*
X131388425Y-87725842D01*
X131443002Y-87682217D01*
X131512500Y-87675023D01*
X131574855Y-87706546D01*
X131591575Y-87725842D01*
X131721500Y-87911395D01*
X131721505Y-87911401D01*
X131888599Y-88078495D01*
X131985384Y-88146265D01*
X132082165Y-88214032D01*
X132082167Y-88214033D01*
X132082170Y-88214035D01*
X132296337Y-88313903D01*
X132524592Y-88375063D01*
X132712918Y-88391539D01*
X132759999Y-88395659D01*
X132760000Y-88395659D01*
X132760001Y-88395659D01*
X132799234Y-88392226D01*
X132995408Y-88375063D01*
X133223663Y-88313903D01*
X133437830Y-88214035D01*
X133631401Y-88078495D01*
X133798495Y-87911401D01*
X133928425Y-87725842D01*
X133983002Y-87682217D01*
X134052500Y-87675023D01*
X134114855Y-87706546D01*
X134131575Y-87725842D01*
X134261500Y-87911395D01*
X134261505Y-87911401D01*
X134428599Y-88078495D01*
X134525384Y-88146265D01*
X134622165Y-88214032D01*
X134622167Y-88214033D01*
X134622170Y-88214035D01*
X134836337Y-88313903D01*
X135064592Y-88375063D01*
X135252918Y-88391539D01*
X135299999Y-88395659D01*
X135300000Y-88395659D01*
X135300001Y-88395659D01*
X135339234Y-88392226D01*
X135535408Y-88375063D01*
X135763663Y-88313903D01*
X135977830Y-88214035D01*
X136171401Y-88078495D01*
X136338495Y-87911401D01*
X136468425Y-87725842D01*
X136523002Y-87682217D01*
X136592500Y-87675023D01*
X136654855Y-87706546D01*
X136671575Y-87725842D01*
X136801500Y-87911395D01*
X136801505Y-87911401D01*
X136968599Y-88078495D01*
X137065384Y-88146265D01*
X137162165Y-88214032D01*
X137162167Y-88214033D01*
X137162170Y-88214035D01*
X137376337Y-88313903D01*
X137604592Y-88375063D01*
X137792918Y-88391539D01*
X137839999Y-88395659D01*
X137840000Y-88395659D01*
X137840001Y-88395659D01*
X137879234Y-88392226D01*
X138075408Y-88375063D01*
X138303663Y-88313903D01*
X138517830Y-88214035D01*
X138711401Y-88078495D01*
X138878495Y-87911401D01*
X139008425Y-87725842D01*
X139063002Y-87682217D01*
X139132500Y-87675023D01*
X139194855Y-87706546D01*
X139211575Y-87725842D01*
X139341500Y-87911395D01*
X139341505Y-87911401D01*
X139508599Y-88078495D01*
X139605384Y-88146265D01*
X139702165Y-88214032D01*
X139702167Y-88214033D01*
X139702170Y-88214035D01*
X139916337Y-88313903D01*
X140144592Y-88375063D01*
X140332918Y-88391539D01*
X140379999Y-88395659D01*
X140380000Y-88395659D01*
X140380001Y-88395659D01*
X140419234Y-88392226D01*
X140615408Y-88375063D01*
X140843663Y-88313903D01*
X141057830Y-88214035D01*
X141251401Y-88078495D01*
X141418495Y-87911401D01*
X141548425Y-87725842D01*
X141603002Y-87682217D01*
X141672500Y-87675023D01*
X141734855Y-87706546D01*
X141751575Y-87725842D01*
X141881500Y-87911395D01*
X141881505Y-87911401D01*
X142048599Y-88078495D01*
X142145384Y-88146265D01*
X142242165Y-88214032D01*
X142242167Y-88214033D01*
X142242170Y-88214035D01*
X142456337Y-88313903D01*
X142684592Y-88375063D01*
X142872918Y-88391539D01*
X142919999Y-88395659D01*
X142920000Y-88395659D01*
X142920001Y-88395659D01*
X142959234Y-88392226D01*
X143155408Y-88375063D01*
X143383663Y-88313903D01*
X143597830Y-88214035D01*
X143791401Y-88078495D01*
X143958495Y-87911401D01*
X144088425Y-87725842D01*
X144143002Y-87682217D01*
X144212500Y-87675023D01*
X144274855Y-87706546D01*
X144291575Y-87725842D01*
X144421500Y-87911395D01*
X144421505Y-87911401D01*
X144588599Y-88078495D01*
X144685384Y-88146265D01*
X144782165Y-88214032D01*
X144782167Y-88214033D01*
X144782170Y-88214035D01*
X144996337Y-88313903D01*
X145224592Y-88375063D01*
X145412918Y-88391539D01*
X145459999Y-88395659D01*
X145460000Y-88395659D01*
X145460001Y-88395659D01*
X145499234Y-88392226D01*
X145695408Y-88375063D01*
X145923663Y-88313903D01*
X146137830Y-88214035D01*
X146331401Y-88078495D01*
X146498495Y-87911401D01*
X146628425Y-87725842D01*
X146683002Y-87682217D01*
X146752500Y-87675023D01*
X146814855Y-87706546D01*
X146831575Y-87725842D01*
X146961500Y-87911395D01*
X146961505Y-87911401D01*
X147128599Y-88078495D01*
X147225384Y-88146265D01*
X147322165Y-88214032D01*
X147322167Y-88214033D01*
X147322170Y-88214035D01*
X147536337Y-88313903D01*
X147764592Y-88375063D01*
X147952918Y-88391539D01*
X147999999Y-88395659D01*
X148000000Y-88395659D01*
X148000001Y-88395659D01*
X148039234Y-88392226D01*
X148235408Y-88375063D01*
X148463663Y-88313903D01*
X148677830Y-88214035D01*
X148871401Y-88078495D01*
X149038495Y-87911401D01*
X149168425Y-87725842D01*
X149223002Y-87682217D01*
X149292500Y-87675023D01*
X149354855Y-87706546D01*
X149371575Y-87725842D01*
X149501500Y-87911395D01*
X149501505Y-87911401D01*
X149668599Y-88078495D01*
X149765384Y-88146265D01*
X149862165Y-88214032D01*
X149862167Y-88214033D01*
X149862170Y-88214035D01*
X150076337Y-88313903D01*
X150304592Y-88375063D01*
X150492918Y-88391539D01*
X150539999Y-88395659D01*
X150540000Y-88395659D01*
X150540001Y-88395659D01*
X150579234Y-88392226D01*
X150775408Y-88375063D01*
X151003663Y-88313903D01*
X151217830Y-88214035D01*
X151411401Y-88078495D01*
X151578495Y-87911401D01*
X151708425Y-87725842D01*
X151763002Y-87682217D01*
X151832500Y-87675023D01*
X151894855Y-87706546D01*
X151911575Y-87725842D01*
X152041500Y-87911395D01*
X152041505Y-87911401D01*
X152208599Y-88078495D01*
X152305384Y-88146265D01*
X152402165Y-88214032D01*
X152402167Y-88214033D01*
X152402170Y-88214035D01*
X152616337Y-88313903D01*
X152844592Y-88375063D01*
X153032918Y-88391539D01*
X153079999Y-88395659D01*
X153080000Y-88395659D01*
X153080001Y-88395659D01*
X153119234Y-88392226D01*
X153315408Y-88375063D01*
X153543663Y-88313903D01*
X153757830Y-88214035D01*
X153951401Y-88078495D01*
X154118495Y-87911401D01*
X154248425Y-87725842D01*
X154303002Y-87682217D01*
X154372500Y-87675023D01*
X154434855Y-87706546D01*
X154451575Y-87725842D01*
X154581500Y-87911395D01*
X154581505Y-87911401D01*
X154748599Y-88078495D01*
X154845384Y-88146265D01*
X154942165Y-88214032D01*
X154942167Y-88214033D01*
X154942170Y-88214035D01*
X155156337Y-88313903D01*
X155384592Y-88375063D01*
X155572918Y-88391539D01*
X155619999Y-88395659D01*
X155620000Y-88395659D01*
X155620001Y-88395659D01*
X155659234Y-88392226D01*
X155855408Y-88375063D01*
X156083663Y-88313903D01*
X156297830Y-88214035D01*
X156491401Y-88078495D01*
X156658495Y-87911401D01*
X156788425Y-87725842D01*
X156843002Y-87682217D01*
X156912500Y-87675023D01*
X156974855Y-87706546D01*
X156991575Y-87725842D01*
X157121500Y-87911395D01*
X157121505Y-87911401D01*
X157288599Y-88078495D01*
X157385384Y-88146265D01*
X157482165Y-88214032D01*
X157482167Y-88214033D01*
X157482170Y-88214035D01*
X157696337Y-88313903D01*
X157924592Y-88375063D01*
X158112918Y-88391539D01*
X158159999Y-88395659D01*
X158160000Y-88395659D01*
X158160001Y-88395659D01*
X158199234Y-88392226D01*
X158395408Y-88375063D01*
X158623663Y-88313903D01*
X158837830Y-88214035D01*
X159031401Y-88078495D01*
X159198495Y-87911401D01*
X159328425Y-87725842D01*
X159383002Y-87682217D01*
X159452500Y-87675023D01*
X159514855Y-87706546D01*
X159531575Y-87725842D01*
X159661500Y-87911395D01*
X159661505Y-87911401D01*
X159828599Y-88078495D01*
X159925384Y-88146265D01*
X160022165Y-88214032D01*
X160022167Y-88214033D01*
X160022170Y-88214035D01*
X160236337Y-88313903D01*
X160464592Y-88375063D01*
X160652918Y-88391539D01*
X160699999Y-88395659D01*
X160700000Y-88395659D01*
X160700001Y-88395659D01*
X160739234Y-88392226D01*
X160935408Y-88375063D01*
X161163663Y-88313903D01*
X161377830Y-88214035D01*
X161571401Y-88078495D01*
X161738495Y-87911401D01*
X161874035Y-87717830D01*
X161973903Y-87503663D01*
X162035063Y-87275408D01*
X162055659Y-87040000D01*
X162035063Y-86804592D01*
X161973903Y-86576337D01*
X161874035Y-86362171D01*
X161868424Y-86354158D01*
X161738496Y-86168600D01*
X161738493Y-86168597D01*
X161616567Y-86046671D01*
X161583084Y-85985351D01*
X161588068Y-85915659D01*
X161629939Y-85859725D01*
X161660915Y-85842810D01*
X161792331Y-85793796D01*
X161907546Y-85707546D01*
X161993796Y-85592331D01*
X162044091Y-85457483D01*
X162050500Y-85397873D01*
X162050499Y-83602128D01*
X162044091Y-83542517D01*
X162043002Y-83539598D01*
X161993797Y-83407671D01*
X161993793Y-83407664D01*
X161907547Y-83292455D01*
X161907544Y-83292452D01*
X161792335Y-83206206D01*
X161792328Y-83206202D01*
X161657482Y-83155908D01*
X161657483Y-83155908D01*
X161597883Y-83149501D01*
X161597881Y-83149500D01*
X161597873Y-83149500D01*
X161597864Y-83149500D01*
X159802129Y-83149500D01*
X159802123Y-83149501D01*
X159742516Y-83155908D01*
X159607671Y-83206202D01*
X159607664Y-83206206D01*
X159492455Y-83292452D01*
X159492452Y-83292455D01*
X159406206Y-83407664D01*
X159406202Y-83407671D01*
X159356997Y-83539598D01*
X159315126Y-83595532D01*
X159249661Y-83619949D01*
X159181388Y-83605097D01*
X159153134Y-83583946D01*
X159031082Y-83461894D01*
X158837578Y-83326399D01*
X158623492Y-83226570D01*
X158623486Y-83226567D01*
X158410000Y-83169364D01*
X158410000Y-84066988D01*
X158352993Y-84034075D01*
X158225826Y-84000000D01*
X158094174Y-84000000D01*
X157967007Y-84034075D01*
X157910000Y-84066988D01*
X157910000Y-83169364D01*
X157909999Y-83169364D01*
X157696513Y-83226567D01*
X157696507Y-83226570D01*
X157482422Y-83326399D01*
X157482420Y-83326400D01*
X157288926Y-83461886D01*
X157288920Y-83461891D01*
X157121891Y-83628920D01*
X157121890Y-83628922D01*
X156991880Y-83814595D01*
X156937303Y-83858219D01*
X156867804Y-83865412D01*
X156805450Y-83833890D01*
X156788730Y-83814594D01*
X156658494Y-83628597D01*
X156491402Y-83461506D01*
X156491395Y-83461501D01*
X156297834Y-83325967D01*
X156297830Y-83325965D01*
X156297828Y-83325964D01*
X156083663Y-83226097D01*
X156083659Y-83226096D01*
X156083655Y-83226094D01*
X155855413Y-83164938D01*
X155855403Y-83164936D01*
X155620001Y-83144341D01*
X155619999Y-83144341D01*
X155384596Y-83164936D01*
X155384586Y-83164938D01*
X155156344Y-83226094D01*
X155156335Y-83226098D01*
X154942171Y-83325964D01*
X154942169Y-83325965D01*
X154748597Y-83461505D01*
X154581505Y-83628597D01*
X154451575Y-83814158D01*
X154396998Y-83857783D01*
X154327500Y-83864977D01*
X154265145Y-83833454D01*
X154248425Y-83814158D01*
X154118494Y-83628597D01*
X153951402Y-83461506D01*
X153951395Y-83461501D01*
X153757834Y-83325967D01*
X153757830Y-83325965D01*
X153757828Y-83325964D01*
X153543663Y-83226097D01*
X153543659Y-83226096D01*
X153543655Y-83226094D01*
X153315413Y-83164938D01*
X153315403Y-83164936D01*
X153080001Y-83144341D01*
X153079999Y-83144341D01*
X152844596Y-83164936D01*
X152844586Y-83164938D01*
X152616344Y-83226094D01*
X152616335Y-83226098D01*
X152402171Y-83325964D01*
X152402169Y-83325965D01*
X152208597Y-83461505D01*
X152041508Y-83628594D01*
X151911269Y-83814595D01*
X151856692Y-83858219D01*
X151787193Y-83865412D01*
X151724839Y-83833890D01*
X151708119Y-83814594D01*
X151578113Y-83628926D01*
X151578108Y-83628920D01*
X151411082Y-83461894D01*
X151217578Y-83326399D01*
X151003492Y-83226570D01*
X151003486Y-83226567D01*
X150790000Y-83169364D01*
X150790000Y-84066988D01*
X150732993Y-84034075D01*
X150605826Y-84000000D01*
X150474174Y-84000000D01*
X150347007Y-84034075D01*
X150290000Y-84066988D01*
X150290000Y-83169364D01*
X150289999Y-83169364D01*
X150076513Y-83226567D01*
X150076507Y-83226570D01*
X149862422Y-83326399D01*
X149862420Y-83326400D01*
X149668926Y-83461886D01*
X149668920Y-83461891D01*
X149501891Y-83628920D01*
X149501890Y-83628922D01*
X149371880Y-83814595D01*
X149317303Y-83858219D01*
X149247804Y-83865412D01*
X149185450Y-83833890D01*
X149168730Y-83814594D01*
X149038494Y-83628597D01*
X148871402Y-83461506D01*
X148871395Y-83461501D01*
X148677834Y-83325967D01*
X148677830Y-83325965D01*
X148677828Y-83325964D01*
X148463663Y-83226097D01*
X148463659Y-83226096D01*
X148463655Y-83226094D01*
X148235413Y-83164938D01*
X148235403Y-83164936D01*
X148000001Y-83144341D01*
X147999999Y-83144341D01*
X147764596Y-83164936D01*
X147764586Y-83164938D01*
X147536344Y-83226094D01*
X147536335Y-83226098D01*
X147322171Y-83325964D01*
X147322169Y-83325965D01*
X147128597Y-83461505D01*
X146961505Y-83628597D01*
X146831575Y-83814158D01*
X146776998Y-83857783D01*
X146707500Y-83864977D01*
X146645145Y-83833454D01*
X146628425Y-83814158D01*
X146498494Y-83628597D01*
X146331402Y-83461506D01*
X146331395Y-83461501D01*
X146137834Y-83325967D01*
X146137830Y-83325965D01*
X146137828Y-83325964D01*
X145923663Y-83226097D01*
X145923659Y-83226096D01*
X145923655Y-83226094D01*
X145695413Y-83164938D01*
X145695403Y-83164936D01*
X145460001Y-83144341D01*
X145459999Y-83144341D01*
X145224596Y-83164936D01*
X145224586Y-83164938D01*
X144996344Y-83226094D01*
X144996335Y-83226098D01*
X144782171Y-83325964D01*
X144782169Y-83325965D01*
X144588597Y-83461505D01*
X144421508Y-83628594D01*
X144291269Y-83814595D01*
X144236692Y-83858219D01*
X144167193Y-83865412D01*
X144104839Y-83833890D01*
X144088119Y-83814594D01*
X143958113Y-83628926D01*
X143958108Y-83628920D01*
X143791082Y-83461894D01*
X143597578Y-83326399D01*
X143383492Y-83226570D01*
X143383486Y-83226567D01*
X143170000Y-83169364D01*
X143170000Y-84066988D01*
X143112993Y-84034075D01*
X142985826Y-84000000D01*
X142854174Y-84000000D01*
X142727007Y-84034075D01*
X142670000Y-84066988D01*
X142670000Y-83169364D01*
X142669999Y-83169364D01*
X142456513Y-83226567D01*
X142456507Y-83226570D01*
X142242422Y-83326399D01*
X142242420Y-83326400D01*
X142048926Y-83461886D01*
X142048920Y-83461891D01*
X141881891Y-83628920D01*
X141881890Y-83628922D01*
X141751880Y-83814595D01*
X141697303Y-83858219D01*
X141627804Y-83865412D01*
X141565450Y-83833890D01*
X141548730Y-83814594D01*
X141418494Y-83628597D01*
X141251402Y-83461506D01*
X141251395Y-83461501D01*
X141057834Y-83325967D01*
X141057830Y-83325965D01*
X141057828Y-83325964D01*
X140843663Y-83226097D01*
X140843659Y-83226096D01*
X140843655Y-83226094D01*
X140615413Y-83164938D01*
X140615403Y-83164936D01*
X140380001Y-83144341D01*
X140379999Y-83144341D01*
X140144596Y-83164936D01*
X140144586Y-83164938D01*
X139916344Y-83226094D01*
X139916335Y-83226098D01*
X139702171Y-83325964D01*
X139702169Y-83325965D01*
X139508597Y-83461505D01*
X139341505Y-83628597D01*
X139211575Y-83814158D01*
X139156998Y-83857783D01*
X139087500Y-83864977D01*
X139025145Y-83833454D01*
X139008425Y-83814158D01*
X138878494Y-83628597D01*
X138711402Y-83461506D01*
X138711395Y-83461501D01*
X138517834Y-83325967D01*
X138517830Y-83325965D01*
X138517828Y-83325964D01*
X138303663Y-83226097D01*
X138303659Y-83226096D01*
X138303655Y-83226094D01*
X138075413Y-83164938D01*
X138075403Y-83164936D01*
X137840001Y-83144341D01*
X137839999Y-83144341D01*
X137604596Y-83164936D01*
X137604586Y-83164938D01*
X137376344Y-83226094D01*
X137376335Y-83226098D01*
X137162171Y-83325964D01*
X137162169Y-83325965D01*
X136968597Y-83461505D01*
X136801508Y-83628594D01*
X136671269Y-83814595D01*
X136616692Y-83858219D01*
X136547193Y-83865412D01*
X136484839Y-83833890D01*
X136468119Y-83814594D01*
X136338113Y-83628926D01*
X136338108Y-83628920D01*
X136171082Y-83461894D01*
X135977578Y-83326399D01*
X135763492Y-83226570D01*
X135763486Y-83226567D01*
X135550000Y-83169364D01*
X135550000Y-84066988D01*
X135492993Y-84034075D01*
X135365826Y-84000000D01*
X135234174Y-84000000D01*
X135107007Y-84034075D01*
X135050000Y-84066988D01*
X135050000Y-83169364D01*
X135049999Y-83169364D01*
X134836513Y-83226567D01*
X134836507Y-83226570D01*
X134622422Y-83326399D01*
X134622420Y-83326400D01*
X134428926Y-83461886D01*
X134428920Y-83461891D01*
X134261891Y-83628920D01*
X134261890Y-83628922D01*
X134131880Y-83814595D01*
X134077303Y-83858219D01*
X134007804Y-83865412D01*
X133945450Y-83833890D01*
X133928730Y-83814594D01*
X133798494Y-83628597D01*
X133631402Y-83461506D01*
X133631395Y-83461501D01*
X133437834Y-83325967D01*
X133437830Y-83325965D01*
X133437828Y-83325964D01*
X133223663Y-83226097D01*
X133223659Y-83226096D01*
X133223655Y-83226094D01*
X132995413Y-83164938D01*
X132995403Y-83164936D01*
X132760001Y-83144341D01*
X132759999Y-83144341D01*
X132524596Y-83164936D01*
X132524586Y-83164938D01*
X132296344Y-83226094D01*
X132296335Y-83226098D01*
X132082171Y-83325964D01*
X132082169Y-83325965D01*
X131888597Y-83461505D01*
X131721505Y-83628597D01*
X131591575Y-83814158D01*
X131536998Y-83857783D01*
X131467500Y-83864977D01*
X131405145Y-83833454D01*
X131388425Y-83814158D01*
X131258494Y-83628597D01*
X131091402Y-83461506D01*
X131091395Y-83461501D01*
X130897834Y-83325967D01*
X130897830Y-83325965D01*
X130897828Y-83325964D01*
X130683663Y-83226097D01*
X130683659Y-83226096D01*
X130683655Y-83226094D01*
X130455413Y-83164938D01*
X130455403Y-83164936D01*
X130220001Y-83144341D01*
X130219999Y-83144341D01*
X129984596Y-83164936D01*
X129984586Y-83164938D01*
X129756344Y-83226094D01*
X129756335Y-83226098D01*
X129542171Y-83325964D01*
X129542169Y-83325965D01*
X129348597Y-83461505D01*
X129181508Y-83628594D01*
X129051269Y-83814595D01*
X128996692Y-83858219D01*
X128927193Y-83865412D01*
X128864839Y-83833890D01*
X128848119Y-83814594D01*
X128718113Y-83628926D01*
X128718108Y-83628920D01*
X128551082Y-83461894D01*
X128357578Y-83326399D01*
X128143492Y-83226570D01*
X128143486Y-83226567D01*
X127930000Y-83169364D01*
X127930000Y-84066988D01*
X127872993Y-84034075D01*
X127745826Y-84000000D01*
X127614174Y-84000000D01*
X127487007Y-84034075D01*
X127430000Y-84066988D01*
X127430000Y-83169364D01*
X127429999Y-83169364D01*
X127216513Y-83226567D01*
X127216507Y-83226570D01*
X127002422Y-83326399D01*
X127002420Y-83326400D01*
X126808926Y-83461886D01*
X126808920Y-83461891D01*
X126641891Y-83628920D01*
X126641886Y-83628926D01*
X126506400Y-83822420D01*
X126506399Y-83822422D01*
X126406570Y-84036507D01*
X126406567Y-84036513D01*
X126349364Y-84249999D01*
X126349364Y-84250000D01*
X127246988Y-84250000D01*
X127214075Y-84307007D01*
X127180000Y-84434174D01*
X127180000Y-84565826D01*
X127214075Y-84692993D01*
X127246988Y-84750000D01*
X126349364Y-84750000D01*
X126406567Y-84963486D01*
X126406570Y-84963492D01*
X126506399Y-85177578D01*
X126641894Y-85371082D01*
X126808917Y-85538105D01*
X126994595Y-85668119D01*
X127038219Y-85722696D01*
X127045412Y-85792195D01*
X127013890Y-85854549D01*
X126994595Y-85871269D01*
X126808594Y-86001508D01*
X126641505Y-86168597D01*
X126505965Y-86362169D01*
X126505964Y-86362171D01*
X126406098Y-86576335D01*
X126406094Y-86576344D01*
X126344938Y-86804586D01*
X126344936Y-86804596D01*
X126324341Y-87039999D01*
X126324341Y-87040000D01*
X114500500Y-87040000D01*
X114500500Y-63500005D01*
X119994357Y-63500005D01*
X120014890Y-63747812D01*
X120014892Y-63747824D01*
X120075936Y-63988881D01*
X120175826Y-64216606D01*
X120311833Y-64424782D01*
X120311836Y-64424785D01*
X120480256Y-64607738D01*
X120676491Y-64760474D01*
X120895190Y-64878828D01*
X121130386Y-64959571D01*
X121375665Y-65000500D01*
X121624335Y-65000500D01*
X121869614Y-64959571D01*
X122104810Y-64878828D01*
X122323509Y-64760474D01*
X122519744Y-64607738D01*
X122688164Y-64424785D01*
X122824173Y-64216607D01*
X122919184Y-64000005D01*
X165494357Y-64000005D01*
X165514890Y-64247812D01*
X165514892Y-64247824D01*
X165575936Y-64488881D01*
X165675826Y-64716606D01*
X165811833Y-64924782D01*
X165811836Y-64924785D01*
X165980256Y-65107738D01*
X166176491Y-65260474D01*
X166395190Y-65378828D01*
X166630386Y-65459571D01*
X166875665Y-65500500D01*
X167124335Y-65500500D01*
X167369614Y-65459571D01*
X167604810Y-65378828D01*
X167823509Y-65260474D01*
X168019744Y-65107738D01*
X168188164Y-64924785D01*
X168324173Y-64716607D01*
X168424063Y-64488881D01*
X168485108Y-64247821D01*
X168485109Y-64247812D01*
X168505643Y-64000005D01*
X168505643Y-63999994D01*
X168485109Y-63752187D01*
X168485107Y-63752175D01*
X168424063Y-63511118D01*
X168324174Y-63283396D01*
X168324173Y-63283393D01*
X168193256Y-63083009D01*
X168173070Y-63016122D01*
X168192250Y-62948936D01*
X168237642Y-62906356D01*
X168242323Y-62903798D01*
X168242331Y-62903796D01*
X168357546Y-62817546D01*
X168443796Y-62702331D01*
X168494091Y-62567483D01*
X168500500Y-62507873D01*
X168500499Y-60412128D01*
X168494091Y-60352517D01*
X168443796Y-60217669D01*
X168443795Y-60217668D01*
X168443793Y-60217664D01*
X168357547Y-60102455D01*
X168357544Y-60102452D01*
X168242335Y-60016206D01*
X168242328Y-60016202D01*
X168107482Y-59965908D01*
X168107483Y-59965908D01*
X168047883Y-59959501D01*
X168047881Y-59959500D01*
X168047873Y-59959500D01*
X168047864Y-59959500D01*
X165952129Y-59959500D01*
X165952123Y-59959501D01*
X165892516Y-59965908D01*
X165757671Y-60016202D01*
X165757664Y-60016206D01*
X165642455Y-60102452D01*
X165642452Y-60102455D01*
X165556206Y-60217664D01*
X165556202Y-60217671D01*
X165505908Y-60352517D01*
X165499501Y-60412116D01*
X165499501Y-60412123D01*
X165499500Y-60412135D01*
X165499500Y-62507870D01*
X165499501Y-62507876D01*
X165505908Y-62567483D01*
X165556202Y-62702328D01*
X165556206Y-62702335D01*
X165642452Y-62817544D01*
X165642455Y-62817547D01*
X165757664Y-62903793D01*
X165762361Y-62906358D01*
X165811766Y-62955764D01*
X165826617Y-63024037D01*
X165806742Y-63083011D01*
X165675826Y-63283393D01*
X165575936Y-63511118D01*
X165514892Y-63752175D01*
X165514890Y-63752187D01*
X165494357Y-63999994D01*
X165494357Y-64000005D01*
X122919184Y-64000005D01*
X122924063Y-63988881D01*
X122985108Y-63747821D01*
X123005643Y-63500000D01*
X122987694Y-63283393D01*
X122985109Y-63252187D01*
X122985107Y-63252175D01*
X122924063Y-63011118D01*
X122824174Y-62783396D01*
X122824173Y-62783393D01*
X122693256Y-62583009D01*
X122673070Y-62516122D01*
X122692250Y-62448936D01*
X122737642Y-62406356D01*
X122742323Y-62403798D01*
X122742331Y-62403796D01*
X122857546Y-62317546D01*
X122943796Y-62202331D01*
X122994091Y-62067483D01*
X123000500Y-62007873D01*
X123000499Y-59912128D01*
X122994091Y-59852517D01*
X122943796Y-59717669D01*
X122943795Y-59717668D01*
X122943793Y-59717664D01*
X122857547Y-59602455D01*
X122857544Y-59602452D01*
X122742335Y-59516206D01*
X122742328Y-59516202D01*
X122607482Y-59465908D01*
X122607483Y-59465908D01*
X122547883Y-59459501D01*
X122547881Y-59459500D01*
X122547873Y-59459500D01*
X122547864Y-59459500D01*
X120452129Y-59459500D01*
X120452123Y-59459501D01*
X120392516Y-59465908D01*
X120257671Y-59516202D01*
X120257664Y-59516206D01*
X120142455Y-59602452D01*
X120142452Y-59602455D01*
X120056206Y-59717664D01*
X120056202Y-59717671D01*
X120005908Y-59852517D01*
X119999501Y-59912116D01*
X119999501Y-59912123D01*
X119999500Y-59912135D01*
X119999500Y-62007870D01*
X119999501Y-62007876D01*
X120005908Y-62067483D01*
X120056202Y-62202328D01*
X120056206Y-62202335D01*
X120142452Y-62317544D01*
X120142455Y-62317547D01*
X120257664Y-62403793D01*
X120262361Y-62406358D01*
X120311766Y-62455764D01*
X120326617Y-62524037D01*
X120306742Y-62583011D01*
X120175826Y-62783393D01*
X120075936Y-63011118D01*
X120014892Y-63252175D01*
X120014890Y-63252187D01*
X119994357Y-63499994D01*
X119994357Y-63500005D01*
X114500500Y-63500005D01*
X114500500Y-53735006D01*
X119594700Y-53735006D01*
X119613864Y-53966297D01*
X119613866Y-53966308D01*
X119670842Y-54191300D01*
X119764075Y-54403848D01*
X119891016Y-54598147D01*
X119891019Y-54598151D01*
X119891021Y-54598153D01*
X119985803Y-54701114D01*
X120016724Y-54763767D01*
X120008864Y-54833193D01*
X119964716Y-54887348D01*
X119937906Y-54901277D01*
X119857669Y-54931203D01*
X119857664Y-54931206D01*
X119742455Y-55017452D01*
X119742452Y-55017455D01*
X119656206Y-55132664D01*
X119656202Y-55132671D01*
X119605908Y-55267517D01*
X119605176Y-55274330D01*
X119599501Y-55327123D01*
X119599500Y-55327135D01*
X119599500Y-57222870D01*
X119599501Y-57222876D01*
X119605908Y-57282483D01*
X119656202Y-57417328D01*
X119656206Y-57417335D01*
X119742452Y-57532544D01*
X119742455Y-57532547D01*
X119857664Y-57618793D01*
X119857671Y-57618797D01*
X119992517Y-57669091D01*
X119992516Y-57669091D01*
X119999444Y-57669835D01*
X120052127Y-57675500D01*
X121947872Y-57675499D01*
X122007483Y-57669091D01*
X122142331Y-57618796D01*
X122257546Y-57532546D01*
X122343796Y-57417331D01*
X122394091Y-57282483D01*
X122400500Y-57222873D01*
X122400499Y-56047870D01*
X139229500Y-56047870D01*
X139229501Y-56047876D01*
X139235908Y-56107483D01*
X139286202Y-56242328D01*
X139286206Y-56242335D01*
X139372452Y-56357544D01*
X139372455Y-56357547D01*
X139487664Y-56443793D01*
X139487671Y-56443797D01*
X139622517Y-56494091D01*
X139622516Y-56494091D01*
X139629444Y-56494835D01*
X139682127Y-56500500D01*
X141777872Y-56500499D01*
X141837483Y-56494091D01*
X141972331Y-56443796D01*
X142087546Y-56357546D01*
X142173796Y-56242331D01*
X142173797Y-56242326D01*
X142178047Y-56234546D01*
X142181288Y-56236316D01*
X142212541Y-56194393D01*
X142277956Y-56169844D01*
X142346259Y-56184558D01*
X142363212Y-56195655D01*
X142446491Y-56260474D01*
X142665190Y-56378828D01*
X142900386Y-56459571D01*
X143145665Y-56500500D01*
X143394335Y-56500500D01*
X143639614Y-56459571D01*
X143874810Y-56378828D01*
X144085135Y-56265006D01*
X165594700Y-56265006D01*
X165613864Y-56496297D01*
X165613866Y-56496308D01*
X165670842Y-56721300D01*
X165764075Y-56933848D01*
X165891016Y-57128147D01*
X165891019Y-57128151D01*
X165891021Y-57128153D01*
X166048216Y-57298913D01*
X166048219Y-57298915D01*
X166048222Y-57298918D01*
X166231365Y-57441464D01*
X166231371Y-57441468D01*
X166231374Y-57441470D01*
X166435497Y-57551936D01*
X166549487Y-57591068D01*
X166655015Y-57627297D01*
X166655017Y-57627297D01*
X166655019Y-57627298D01*
X166883951Y-57665500D01*
X166883952Y-57665500D01*
X167116048Y-57665500D01*
X167116049Y-57665500D01*
X167344981Y-57627298D01*
X167564503Y-57551936D01*
X167768626Y-57441470D01*
X167951784Y-57298913D01*
X168108979Y-57128153D01*
X168235924Y-56933849D01*
X168329157Y-56721300D01*
X168386134Y-56496305D01*
X168386135Y-56496297D01*
X168405300Y-56265006D01*
X168405300Y-56264993D01*
X168386135Y-56033702D01*
X168386133Y-56033691D01*
X168329157Y-55808699D01*
X168235924Y-55596151D01*
X168108983Y-55401852D01*
X168108980Y-55401849D01*
X168108979Y-55401847D01*
X168014195Y-55298884D01*
X167983275Y-55236232D01*
X167991135Y-55166806D01*
X168035283Y-55112651D01*
X168062095Y-55098722D01*
X168142326Y-55068798D01*
X168142326Y-55068797D01*
X168142331Y-55068796D01*
X168257546Y-54982546D01*
X168343796Y-54867331D01*
X168394091Y-54732483D01*
X168400500Y-54672873D01*
X168400499Y-52777128D01*
X168394091Y-52717517D01*
X168343796Y-52582669D01*
X168343795Y-52582668D01*
X168343793Y-52582664D01*
X168257547Y-52467455D01*
X168257544Y-52467452D01*
X168142335Y-52381206D01*
X168142328Y-52381202D01*
X168007482Y-52330908D01*
X168007483Y-52330908D01*
X167947883Y-52324501D01*
X167947881Y-52324500D01*
X167947873Y-52324500D01*
X167947864Y-52324500D01*
X166052129Y-52324500D01*
X166052123Y-52324501D01*
X165992516Y-52330908D01*
X165857671Y-52381202D01*
X165857664Y-52381206D01*
X165742455Y-52467452D01*
X165742452Y-52467455D01*
X165656206Y-52582664D01*
X165656202Y-52582671D01*
X165605908Y-52717517D01*
X165599501Y-52777116D01*
X165599501Y-52777123D01*
X165599500Y-52777135D01*
X165599500Y-54672870D01*
X165599501Y-54672876D01*
X165605908Y-54732483D01*
X165656202Y-54867328D01*
X165656206Y-54867335D01*
X165742452Y-54982544D01*
X165742455Y-54982547D01*
X165857664Y-55068793D01*
X165857673Y-55068798D01*
X165937904Y-55098722D01*
X165993838Y-55140593D01*
X166018256Y-55206057D01*
X166003405Y-55274330D01*
X165985802Y-55298886D01*
X165891019Y-55401849D01*
X165764075Y-55596151D01*
X165670842Y-55808699D01*
X165613866Y-56033691D01*
X165613864Y-56033702D01*
X165594700Y-56264993D01*
X165594700Y-56265006D01*
X144085135Y-56265006D01*
X144093509Y-56260474D01*
X144289744Y-56107738D01*
X144458164Y-55924785D01*
X144594173Y-55716607D01*
X144694063Y-55488881D01*
X144704448Y-55447870D01*
X147324500Y-55447870D01*
X147324501Y-55447876D01*
X147330908Y-55507483D01*
X147381202Y-55642328D01*
X147381206Y-55642335D01*
X147467452Y-55757544D01*
X147467455Y-55757547D01*
X147582664Y-55843793D01*
X147582671Y-55843797D01*
X147717517Y-55894091D01*
X147717516Y-55894091D01*
X147724444Y-55894835D01*
X147777127Y-55900500D01*
X149672872Y-55900499D01*
X149732483Y-55894091D01*
X149867331Y-55843796D01*
X149982546Y-55757546D01*
X150068796Y-55642331D01*
X150097455Y-55565493D01*
X150139326Y-55509559D01*
X150204790Y-55485141D01*
X150273063Y-55499992D01*
X150304866Y-55524843D01*
X150312302Y-55532920D01*
X150313215Y-55533912D01*
X150313222Y-55533918D01*
X150496365Y-55676464D01*
X150496371Y-55676468D01*
X150496374Y-55676470D01*
X150700497Y-55786936D01*
X150814487Y-55826068D01*
X150920015Y-55862297D01*
X150920017Y-55862297D01*
X150920019Y-55862298D01*
X151148951Y-55900500D01*
X151148952Y-55900500D01*
X151381048Y-55900500D01*
X151381049Y-55900500D01*
X151609981Y-55862298D01*
X151829503Y-55786936D01*
X152033626Y-55676470D01*
X152216784Y-55533913D01*
X152373979Y-55363153D01*
X152500924Y-55168849D01*
X152594157Y-54956300D01*
X152651134Y-54731305D01*
X152655975Y-54672883D01*
X152670300Y-54500006D01*
X152670300Y-54499993D01*
X152651135Y-54268702D01*
X152651133Y-54268691D01*
X152594157Y-54043699D01*
X152500924Y-53831151D01*
X152373983Y-53636852D01*
X152373980Y-53636849D01*
X152373979Y-53636847D01*
X152216784Y-53466087D01*
X152216779Y-53466083D01*
X152216777Y-53466081D01*
X152033634Y-53323535D01*
X152033628Y-53323531D01*
X151829504Y-53213064D01*
X151829495Y-53213061D01*
X151609984Y-53137702D01*
X151419450Y-53105908D01*
X151381049Y-53099500D01*
X151148951Y-53099500D01*
X151110550Y-53105908D01*
X150920015Y-53137702D01*
X150700504Y-53213061D01*
X150700495Y-53213064D01*
X150496371Y-53323531D01*
X150496365Y-53323535D01*
X150313222Y-53466081D01*
X150313218Y-53466085D01*
X150304866Y-53475158D01*
X150244979Y-53511148D01*
X150175141Y-53509047D01*
X150117525Y-53469522D01*
X150097455Y-53434507D01*
X150068797Y-53357671D01*
X150068793Y-53357664D01*
X149982547Y-53242455D01*
X149982544Y-53242452D01*
X149867335Y-53156206D01*
X149867328Y-53156202D01*
X149732482Y-53105908D01*
X149732483Y-53105908D01*
X149672883Y-53099501D01*
X149672881Y-53099500D01*
X149672873Y-53099500D01*
X149672864Y-53099500D01*
X147777129Y-53099500D01*
X147777123Y-53099501D01*
X147717516Y-53105908D01*
X147582671Y-53156202D01*
X147582664Y-53156206D01*
X147467455Y-53242452D01*
X147467452Y-53242455D01*
X147381206Y-53357664D01*
X147381202Y-53357671D01*
X147330908Y-53492517D01*
X147324501Y-53552116D01*
X147324500Y-53552135D01*
X147324500Y-55447870D01*
X144704448Y-55447870D01*
X144755108Y-55247821D01*
X144755109Y-55247812D01*
X144775643Y-55000005D01*
X144775643Y-54999994D01*
X144755109Y-54752187D01*
X144755107Y-54752175D01*
X144694063Y-54511118D01*
X144594173Y-54283393D01*
X144458166Y-54075217D01*
X144357905Y-53966305D01*
X144289744Y-53892262D01*
X144093509Y-53739526D01*
X144093507Y-53739525D01*
X144093506Y-53739524D01*
X143874811Y-53621172D01*
X143874802Y-53621169D01*
X143639616Y-53540429D01*
X143394335Y-53499500D01*
X143145665Y-53499500D01*
X142900383Y-53540429D01*
X142665197Y-53621169D01*
X142665188Y-53621172D01*
X142446491Y-53739525D01*
X142446488Y-53739528D01*
X142363212Y-53804343D01*
X142298218Y-53829985D01*
X142229678Y-53816418D01*
X142179354Y-53767949D01*
X142178159Y-53765392D01*
X142178047Y-53765454D01*
X142173793Y-53757664D01*
X142087547Y-53642455D01*
X142087544Y-53642452D01*
X141972335Y-53556206D01*
X141972328Y-53556202D01*
X141837482Y-53505908D01*
X141837483Y-53505908D01*
X141777883Y-53499501D01*
X141777881Y-53499500D01*
X141777873Y-53499500D01*
X141777864Y-53499500D01*
X139682129Y-53499500D01*
X139682123Y-53499501D01*
X139622516Y-53505908D01*
X139487671Y-53556202D01*
X139487664Y-53556206D01*
X139372455Y-53642452D01*
X139372452Y-53642455D01*
X139286206Y-53757664D01*
X139286202Y-53757671D01*
X139235908Y-53892517D01*
X139229501Y-53952116D01*
X139229500Y-53952135D01*
X139229500Y-56047870D01*
X122400499Y-56047870D01*
X122400499Y-55327128D01*
X122394091Y-55267517D01*
X122382422Y-55236232D01*
X122343797Y-55132671D01*
X122343793Y-55132664D01*
X122257547Y-55017455D01*
X122257544Y-55017452D01*
X122142335Y-54931206D01*
X122142328Y-54931202D01*
X122062094Y-54901277D01*
X122006160Y-54859406D01*
X121981743Y-54793941D01*
X121996595Y-54725668D01*
X122014190Y-54701121D01*
X122108979Y-54598153D01*
X122235924Y-54403849D01*
X122329157Y-54191300D01*
X122386134Y-53966305D01*
X122387310Y-53952116D01*
X122405300Y-53735006D01*
X122405300Y-53734993D01*
X122386135Y-53503702D01*
X122386133Y-53503691D01*
X122329157Y-53278699D01*
X122235924Y-53066151D01*
X122108983Y-52871852D01*
X122108980Y-52871849D01*
X122108979Y-52871847D01*
X121951784Y-52701087D01*
X121951779Y-52701083D01*
X121951777Y-52701081D01*
X121768634Y-52558535D01*
X121768628Y-52558531D01*
X121564504Y-52448064D01*
X121564495Y-52448061D01*
X121344984Y-52372702D01*
X121173282Y-52344050D01*
X121116049Y-52334500D01*
X120883951Y-52334500D01*
X120838164Y-52342140D01*
X120655015Y-52372702D01*
X120435504Y-52448061D01*
X120435495Y-52448064D01*
X120231371Y-52558531D01*
X120231365Y-52558535D01*
X120048222Y-52701081D01*
X120048219Y-52701084D01*
X119891016Y-52871852D01*
X119764075Y-53066151D01*
X119670842Y-53278699D01*
X119613866Y-53503691D01*
X119613864Y-53503702D01*
X119594700Y-53734993D01*
X119594700Y-53735006D01*
X114500500Y-53735006D01*
X114500500Y-50124500D01*
X114520185Y-50057461D01*
X114572989Y-50011706D01*
X114624500Y-50000500D01*
X171375500Y-50000500D01*
X171442539Y-50020185D01*
G37*
%TD.AperFunction*%
%TD*%
M02*
